<svg width="80" height="148" viewBox="0 0 80 148" fill="none" xmlns="http://www.w3.org/2000/svg">
<path d="M36.0858 35.2942C45.1164 34.3392 51.6625 26.2475 50.707 17.2211C49.7514 8.19466 41.6561 1.65154 32.6255 2.60663C23.5949 3.56172 17.0488 11.6533 18.0043 20.6798C18.9598 29.7062 27.0552 36.2493 36.0858 35.2942Z" fill="#EA6237"/>
<path d="M49.2451 21.3385C50.5683 13.1184 44.9741 5.38248 36.7502 4.05994C28.5262 2.7374 20.7868 8.32902 19.4636 16.5492C18.1405 24.7693 23.7347 32.5052 31.9586 33.8277C40.1825 35.1503 47.922 29.5587 49.2451 21.3385Z" fill="white"/>
<path d="M36.3097 9.01059C36.3783 10.8688 36.3829 12.6944 36.3921 14.5387C36.4012 16.3829 36.36 18.2178 36.3097 20.0574V20.285H36.09C34.7167 20.2479 33.3709 20.2014 32.0114 20.1317C31.334 20.0946 30.6382 20.076 29.9745 20.0296C29.3107 19.9831 28.6012 19.9459 27.9375 19.8855C28.615 19.8577 29.3107 19.8484 29.979 19.8298C30.6474 19.8112 31.3523 19.8298 32.0206 19.8298C33.3938 19.8298 34.7396 19.8298 36.0991 19.8298L35.8702 20.0528C35.8931 18.1946 35.9526 16.3736 36.0121 14.534C36.0716 12.6944 36.154 10.8502 36.3097 9.01059Z" fill="#EA6237"/>
<path d="M15.5276 56.441C18.0504 55.3883 19.2418 52.4906 18.1885 49.969C17.1353 47.4473 14.2363 46.2566 11.7135 47.3093C9.19065 48.3621 7.99933 51.2597 9.05258 53.7814C10.1058 56.303 13.0048 57.4938 15.5276 56.441Z" stroke="#D8E1EF" stroke-width="0.71" stroke-miterlimit="10"/>
<path d="M34.8173 131.433C26.9257 130.573 14.3081 118.72 12.3488 107.924C11.3101 102.183 11.2965 95.5726 14.5621 90.3071C18.1723 84.4973 24.6398 81.8989 29.5109 77.3014C35.5294 71.6059 38.9083 62.9461 45.2715 57.7676C50.061 53.87 56.2654 52.4472 61.4585 54.0529C66.6516 55.6587 72.5522 61.6103 73.677 67.475C75.2553 75.7094 75.9447 79.1999 77.1965 84.6666C78.217 89.1315 77.0151 91.3273 78.344 95.6458C81.5188 105.948 77.1376 119.283 68.5111 126.689C59.8847 134.096 50.1607 133.423 37.5114 132.426" fill="#EA6237" fill-opacity="0.2"/>
<path d="M13.5577 147.123L0.714872 127.784C-0.142843 126.489 1.20106 124.785 2.61836 125.389C6.2614 126.945 9.33056 129.578 11.4065 132.927C12.3926 127.434 8.10865 122.635 4.14573 118.841C1.00383 115.86 -2.38575 112.261 -3.22053 108.135C-3.29747 107.756 -3.27363 107.364 -3.15135 106.997C-3.02907 106.63 -2.81255 106.3 -2.52303 106.041C-2.2335 105.781 -1.8809 105.601 -1.49982 105.517C-1.11874 105.434 -0.722252 105.45 -0.349245 105.564C3.23971 106.747 6.40326 108.94 8.75538 111.875C5.20149 105.304 0.750244 99.2485 -4.4727 93.8811C-5.74879 92.6616 -6.84232 91.2676 -7.72009 89.7415C-8.71082 87.824 -6.90824 85.5747 -4.87174 86.2199C-2.57903 86.9457 -0.457477 88.1217 1.36619 89.6779C-3.41317 83.2664 -8.41727 75.8142 -6.94952 67.835C-6.64221 66.1629 -5.97714 64.4134 -3.8168 64.0317C-2.92704 63.8835 -2.01274 64.0204 -1.20696 64.4225C0.687352 65.3586 1.7744 67.258 2.66422 69.1437C4.79685 73.6941 6.16193 78.5601 6.70512 83.5481C6.71986 83.7418 6.79511 83.9263 6.92043 84.0757C7.04574 84.2252 7.2149 84.3324 7.40446 84.3823C7.59401 84.4323 7.79455 84.4225 7.97826 84.3545C8.16198 84.2864 8.31976 84.1634 8.42972 84.0025C10.058 81.576 9.49842 76.6049 12.4569 75.8233C13.1559 75.6588 13.8915 75.7556 14.5229 76.0952C15.1544 76.4348 15.6371 76.9933 15.8785 77.6636C16.8784 80.2083 15.663 82.5893 14.6814 84.884C12.3899 90.2593 11.2377 96.0437 11.2964 101.878C12.6143 101.164 13.9384 100.462 15.2685 99.7746C18.0205 98.3569 21.0248 100.983 20.0616 103.941C18.6581 108.272 15.2502 112.757 14.9658 117.423C14.9245 118.137 14.9658 118.95 15.9473 119.182C16.3841 119.266 16.8367 119.21 17.2392 119.022C17.6418 118.834 17.9733 118.524 18.1857 118.137C20.1625 114.815 23.8503 117.537 23.8686 120.345C23.8686 122.672 22.3504 124.703 20.8781 126.516C19.4057 128.329 17.8462 130.324 17.7958 132.65L21.9238 131.364C22.2976 131.255 22.6959 131.259 23.067 131.377C23.438 131.495 23.7646 131.721 24.0042 132.026C24.2438 132.33 24.3852 132.699 24.4101 133.085C24.435 133.47 24.3422 133.854 24.1438 134.186C23.2265 135.845 21.6945 137.335 20.2543 138.603C17.8095 140.757 15.2089 143.874 16.3372 146.909" fill="#EA6237" fill-opacity="0.4"/>
<path d="M40.4762 51.7825C39.392 49.3347 36.1117 48.0367 33.4424 48.6026C30.7732 49.1685 28.6874 51.3199 27.6353 53.7946C26.7486 55.9279 26.5603 58.2859 25.8252 60.4686C25.1938 62.3407 24.167 64.0621 22.8114 65.5213C21.5755 66.8687 20.0548 67.9646 19.136 69.4961C18.511 70.4956 18.1493 71.6311 18.0835 72.8008C18.0176 73.9705 18.2495 75.1379 18.7585 76.1985C19.2675 77.2591 20.0376 78.1796 20.9999 78.8778C21.9622 79.5759 23.0865 80.0298 24.2723 80.1988C26.7486 80.5492 29.326 79.6464 31.738 80.3066C32.9646 80.6435 34.0672 81.3666 35.3261 81.5462C37.4945 81.8651 39.6492 80.3965 40.5956 78.4607C41.5421 76.525 41.464 74.2479 40.954 72.1729C40.3981 69.9273 39.3598 67.74 39.2633 65.436C39.1576 62.8625 39.7917 61.1648 40.026 58.6002C40.2097 56.3187 42.0107 55.2318 40.4762 51.7825Z" fill="#38303B"/>
<path d="M44.1445 143.549L43.9747 140.777C43.9869 140.409 43.8929 140.047 43.7079 139.748C43.3279 139.276 42.6123 139.337 42.0221 139.456C41.8072 139.475 41.6033 139.575 41.4399 139.739C41.3755 139.862 41.3372 140.001 41.3281 140.144C41.3189 140.288 41.3392 140.432 41.3873 140.565C41.6569 141.824 41.9264 143.07 42.1959 144.304" fill="#F7B094"/>
<path d="M50.6456 147.054L46.1836 147.123C45.6986 147.123 41.8583 146.971 41.3027 146.971C41.119 146.994 40.934 146.942 40.7825 146.824C40.7146 146.731 40.6663 146.623 40.6411 146.507C40.6159 146.391 40.6145 146.27 40.637 146.153C40.696 145.21 40.8695 144.281 41.1528 143.39C41.2146 143.189 41.3072 142.964 41.4967 142.901C41.5843 142.888 41.6732 142.896 41.7581 142.923C41.843 142.95 41.9221 142.995 41.9906 143.057C42.6123 143.464 42.6519 143.464 43.3971 143.297C43.5822 143.258 44.2789 143.018 44.4729 142.945C44.6717 142.881 44.8826 142.881 45.0813 142.945C46.8285 143.349 48.52 144.008 50.1121 144.904C50.4883 145.075 50.8136 145.36 51.0513 145.727C51.1655 145.913 51.2122 146.14 51.1819 146.362C51.1516 146.585 51.0467 146.787 50.8881 146.927" fill="#38303B"/>
<path d="M8.20728 137.025L10.4 135.509C10.6682 135.272 11.0141 135.142 11.3721 135.144C12.0276 135.211 12.5295 135.951 12.9002 136.596C13.0527 136.81 13.1363 137.065 13.1399 137.327C13.1037 137.625 12.8234 137.779 12.5702 137.882L9.1748 139.371" fill="#F7B094"/>
<path d="M10.1803 146.182L7.86616 142.123C7.61535 141.666 5.81234 138.092 5.53313 137.589C5.41802 137.433 5.36894 137.24 5.3959 137.049C5.45268 136.834 5.67983 136.711 5.89279 136.619C6.72452 136.257 7.60333 136.006 8.50502 135.873C8.6051 135.846 8.71028 135.841 8.8127 135.858C8.91512 135.876 9.01216 135.915 9.09656 135.974C9.1509 136.05 9.18894 136.136 9.20845 136.226C9.22795 136.316 9.22853 136.41 9.21014 136.5C9.17701 137.246 9.21014 137.283 9.7165 137.896C9.84427 138.047 10.4074 138.596 10.5588 138.719C10.714 138.875 10.8192 139.07 10.8617 139.282C11.3943 141.06 11.6823 142.899 11.7183 144.75C11.7628 145.17 11.6858 145.595 11.4958 145.976C11.3928 146.16 11.2222 146.301 11.0173 146.371C10.8125 146.44 10.5882 146.433 10.3885 146.351" fill="#38303B"/>
<path d="M30.9115 100.468C33.7598 113.119 36.2983 126.38 40.2285 138.723C40.543 139.705 40.9915 141.387 41.4631 141.45C42.0809 141.52 42.7062 141.486 43.3126 141.35C43.561 141.309 43.7844 141.177 43.9378 140.98C44.0913 140.784 44.1636 140.538 44.1403 140.291C42.3555 121.652 42.8549 102.854 38.6333 84.6385C38.4854 83.9929 30.0515 84.9112 30.0515 84.9112" fill="#2E3C87"/>
<path d="M11.79 138.282C11.8158 138.358 11.8574 138.428 11.912 138.487C11.9666 138.546 12.033 138.592 12.1067 138.623C12.1805 138.654 12.2599 138.669 12.3398 138.667C12.4196 138.664 12.4981 138.645 12.5699 138.609C16.979 136.366 20.8652 132.556 24.1202 127.805C28.899 120.833 31.8384 115.299 34.4893 107.006C36.5316 100.635 38.2583 93.94 37.6947 87.2271C34.6609 87.4107 31.6389 87.7586 28.642 88.2693C28.4098 88.2776 28.1823 88.3383 27.9763 88.447C27.7704 88.5557 27.5911 88.7096 27.4518 88.8974C27.0281 89.3525 26.7981 90.5449 26.6854 91.1729C25.3915 98.3637 25.1526 105.4 23.6198 112.536C21.7849 121.169 17.768 130.172 11.2354 135.478C11.1459 135.551 11.0807 135.65 11.0485 135.761C11.0162 135.873 11.0185 135.992 11.0551 136.102L11.79 138.282Z" fill="#415299"/>
<path d="M25.1187 93.7816L25.442 95.2869C25.5383 95.5859 25.7349 95.8454 26.0008 96.0244C26.2667 96.2035 26.5867 96.292 26.9104 96.2759C31.3471 96.3598 35.7869 96.3945 40.2296 96.3801C40.58 96.4122 40.9322 96.3412 41.24 96.1762C41.4266 96.0134 41.5475 95.7921 41.5813 95.5515L42.0303 93.569" fill="#EA6237"/>
<path d="M46.2585 92.2795C46.743 93.0647 48.4698 96.4193 48.6896 97.2918C48.9273 98.2341 49.017 99.2417 49.5149 100.088C49.6091 100.254 49.9634 100.193 50.0128 100.001C50.1403 99.6639 50.2085 99.3085 50.2146 98.9495C50.2146 98.7488 50.551 98.6398 50.7035 98.7881C50.8097 98.9032 50.8933 99.0363 50.9502 99.1807C51.3135 100.018 51.7352 100.633 52.0985 101.471C52.2619 101.894 52.4757 102.296 52.7354 102.671C52.852 102.814 52.9821 102.671 52.9866 102.5C52.9911 102.33 52.8655 101.75 52.9058 101.82C52.9911 101.973 53.3095 101.925 53.305 101.641C53.2477 100.434 52.9761 99.2461 52.5022 98.1294C51.6051 96.1489 49.1292 93.5489 48.25 91.455" fill="#F7B094"/>
<path d="M36.3936 75.0381C38.4592 81.3712 41.6258 87.2934 45.7489 92.5345C46.1976 93.1246 46.5341 93.6029 47.1444 93.5671C47.9924 93.5224 49.3879 93.0665 49.0154 92.1635C47.1668 87.8989 44.5778 82.9638 44.0528 78.7841C43.815 76.9022 43.7163 75.0426 43.2586 73.1204C42.801 71.1982 41.9799 68.9765 40.4318 67.4968" fill="#EA6237"/>
<path d="M26.3044 95.683C25.3217 95.683 24.564 94.7183 24.4262 93.7444C24.2884 92.7705 25.3951 90.6657 25.2482 89.6456C25.0416 88.1963 23.7144 75.3786 26.5891 68.4135C27.2458 66.8257 28.3341 65.2333 29.9919 64.804C30.8847 64.6554 31.7943 64.6383 32.692 64.7532C34.5748 64.8409 36.5678 64.5548 38.2531 65.4041C41.1232 66.8534 41.6191 70.6844 41.7477 73.9108C41.8518 76.6033 41.9589 79.2927 42.0691 81.979C42.2023 85.3346 43.3366 88.4086 42.3079 91.095C42.0049 91.8842 43.061 94.169 42.5146 94.8152C41.9681 95.4614 40.2874 95.2768 39.346 95.2768L27.7188 95.586" fill="#F2E2C8"/>
<path d="M48.9447 66.6331L48.6133 66.3019C48.5227 66.2113 48.3758 66.2113 48.2851 66.3019L42.7646 71.8199C42.674 71.9105 42.674 72.0573 42.7646 72.1479L43.0959 72.4791C43.1865 72.5697 43.3335 72.5697 43.4241 72.4791L48.9447 66.9611C49.0353 66.8705 49.0353 66.7237 48.9447 66.6331Z" fill="#38303B"/>
<path d="M33.5748 86.7415C32.7106 87.4367 30.4415 88.5625 29.5127 89.1725C28.8195 89.621 27.6225 89.1456 26.6474 88.0916C25.9727 87.365 25.4551 85.9118 25.1779 84.9743C24.6464 83.1803 24.4708 80.7448 24.4153 78.5829C24.3978 76.0694 24.6019 73.559 25.0254 71.0792C25.335 69.0025 26.9155 66.2172 28.4775 65.6566C30.7281 64.8537 31.7124 65.7732 31.962 68.9981C32.1561 71.3035 31.583 73.2545 31.1579 77.1522C30.9638 78.9193 30.7281 82.0859 30.7281 82.0859L33.5748 86.7415Z" fill="#EA6237"/>
<path d="M37.8027 76.7388C38.4701 76.0816 41.0112 73.1903 41.462 72.379C41.9437 71.4998 42.3149 70.5209 43.0088 69.8049C43.1458 69.6644 43.4507 69.8049 43.4507 70.0179C43.4711 70.389 43.4323 70.7609 43.3358 71.1192C43.2828 71.3186 43.9943 71.5452 44.1755 71.4364C44.3567 71.3276 46.5752 69.0163 46.6282 68.9574C46.752 68.826 47.0348 68.9574 46.9464 69.2339C46.5515 70.4218 45.966 71.5338 45.214 72.5241C43.8131 74.2598 40.7946 76.2085 39.407 78.0666" fill="#F7B094"/>
<path d="M29.3469 89.3411C30.4361 89.1573 32.7732 87.6775 33.7852 86.4965C35.3871 84.6262 40.4789 78.5601 40.6195 77.5445C40.6785 77.1126 39.3035 75.8442 38.768 75.2744C38.4458 74.9297 35.7366 78.0546 34.3025 79.277C33.8487 79.6539 31.2575 81.6529 30.0231 82.4939" fill="#EA6237"/>
<path d="M28.6421 82.2946C31.0125 81.9086 33.5146 80.1342 38.2463 75.3744C38.2857 75.3345 38.3329 75.3027 38.3852 75.2809C38.4375 75.2592 38.4937 75.248 38.5505 75.248C38.6073 75.248 38.6636 75.2592 38.7158 75.2809C38.7681 75.3027 38.8154 75.3345 38.8548 75.3744L40.6212 77.1488" stroke="#2E3C87" stroke-width="0.28" stroke-miterlimit="10"/>
<path d="M30.7561 82.2946C30.1141 81.929 29.3939 81.6889 28.6421 81.5899" stroke="#2E3C87" stroke-width="0.28" stroke-miterlimit="10"/>
<path d="M32.1992 64.396C32.5321 63.1199 33.0114 61.2394 33.2422 60.3663C33.3354 60.0126 33.4286 59.6589 33.5306 59.3052C33.5498 59.2264 33.5862 59.1529 33.6372 59.0902C33.6826 59.0579 33.7369 59.0406 33.7925 59.041C34.3118 59.041 34.7068 59.4887 35.1594 59.735C35.7098 60.0395 36.3666 60.0574 36.9347 60.3394C36.9725 60.3539 37.0064 60.3773 37.0334 60.4077C37.0604 60.4381 37.0799 60.4745 37.09 60.5141C37.1008 60.5703 37.1008 60.628 37.09 60.6842C36.8947 61.723 36.6817 64.5751 36.553 65.8959C36.482 66.6347 35.1639 67.0332 33.8502 66.6347C32.248 66.1646 32.0705 64.9019 32.1992 64.396Z" fill="#F7B094"/>
<path d="M34.0275 59.0883C34.0678 59.0572 34.116 59.0407 34.1653 59.041C34.626 59.041 34.9764 59.4708 35.378 59.7072C35.8702 59.9995 36.449 60.0166 36.953 60.2874C36.9866 60.3013 37.0166 60.3238 37.0406 60.3529C37.0646 60.3821 37.0818 60.4171 37.0908 60.455C37.1004 60.509 37.1004 60.5644 37.0908 60.6184C36.9963 61.1771 36.8979 61.7316 36.8034 62.2903C36.2939 62.5454 35.7252 62.6249 35.1733 62.5181C34.789 62.4169 34.4371 62.2035 34.1555 61.9006C33.8738 61.5977 33.6731 61.2169 33.5747 60.7989L33.685 60.3304C33.7676 59.9909 33.8503 59.6513 33.9409 59.3118C33.9532 59.2309 33.9829 59.1543 34.0275 59.0883Z" fill="#E89C82"/>
<path d="M32.1657 58.3363C31.492 58.2034 30.8777 57.6875 30.7707 57.0015C30.6637 56.3154 31.167 55.5443 31.8764 55.5177" fill="#F7B094"/>
<path d="M32.5028 58.3135C33.3365 61.3157 35.4582 61.7003 37.6549 62.418C38.1307 62.5461 38.6252 62.5905 39.1162 62.5494C40.1373 62.4368 40.6009 61.4611 40.8023 60.6355C41.1483 59.201 41.3213 57.7301 41.3176 56.2543C41.3715 55.2272 41.167 54.2029 40.7227 53.2756C40.4515 52.7708 40.0695 52.3342 39.6055 51.9986C39.1414 51.6631 38.6074 51.4373 38.0436 51.3383C36.5308 51.0897 35.0273 51.8308 34.0156 52.7737C32.5262 54.1809 31.7628 56.1558 32.381 57.9336" fill="#F7B094"/>
<path d="M41.0667 56.2224C41.0368 56.6347 41.0888 57.0481 41.2209 57.4484C41.2955 57.7154 41.4846 57.9553 41.7579 58.1296C41.8317 58.1674 41.8939 58.2171 41.9402 58.2752C41.9866 58.3333 42.0159 58.3985 42.0262 58.4663C42.0366 58.534 42.0276 58.6026 42 58.6674C41.9724 58.7322 41.9268 58.7916 41.8664 58.8415C41.7296 58.9412 41.556 59.0057 41.3694 59.0261C41.2321 59.0509 41.0884 59.0446 40.9556 59.0079C40.8228 58.9713 40.7066 58.9059 40.6211 58.8196" fill="#F7B094"/>
<path d="M30.0515 56.2224C32.2761 55.9535 34.4301 55.2487 36.3971 54.146C37.2912 53.7296 38.1035 53.1479 38.7934 52.4296C39.1289 52.04 39.3782 51.5074 39.0762 51.0832C38.7743 50.659 37.9739 50.5604 37.3317 50.59C36.8524 50.6196 36.4067 50.6689 35.9514 50.7429C35.2028 50.8452 34.4739 51.0648 33.7898 51.3939C33.0779 51.7946 32.4311 52.3071 31.8727 52.913C31.2976 53.49 30.6985 54.1164 30.6266 54.8858" fill="#38303B"/>
<path d="M37.8157 54.7179C37.7854 54.7496 37.8157 54.8067 37.8633 54.8131C37.9067 54.8111 37.9494 54.7959 37.9886 54.7686C38.4771 54.4933 39.0116 54.4468 39.5188 54.6354C39.5942 54.673 39.6728 54.6943 39.7523 54.6989C39.8344 54.6989 39.9209 54.6291 39.9165 54.5466C39.9154 54.5282 39.9117 54.5102 39.9058 54.4939C39.8998 54.4776 39.8917 54.4631 39.882 54.4514C39.7796 54.331 39.6598 54.2464 39.5318 54.204C39.0746 54.038 38.5934 54.0891 38.1572 54.3499C38.0118 54.4176 37.8867 54.5564 37.8027 54.7433" fill="#38303B"/>
<g opacity="0.54">
<path opacity="0.54" d="M35.5774 58.0032C35.5868 58.335 35.7251 58.6501 35.9628 58.8818C36.2006 59.1135 36.5192 59.2437 36.8513 59.2447C37.0131 59.259 37.1761 59.2407 37.3307 59.1909C37.4853 59.1411 37.6283 59.0609 37.7513 58.9549C37.8743 58.8489 37.9748 58.7193 38.0468 58.5738C38.1189 58.4283 38.161 58.2699 38.1707 58.1078C38.1613 57.7761 38.023 57.461 37.7853 57.2293C37.5475 56.9975 37.2289 56.8674 36.8968 56.8663C36.7351 56.8527 36.5724 56.8715 36.4181 56.9215C36.2638 56.9715 36.121 57.0518 35.9981 57.1577C35.8752 57.2636 35.7747 57.3929 35.7025 57.5381C35.6302 57.6833 35.5877 57.8414 35.5774 58.0032Z" fill="#ED825D"/>
</g>
<path d="M39.2119 56.2375C39.2119 56.6277 39.4035 56.9369 39.5994 56.9268C39.7952 56.9166 39.9357 56.5973 39.9144 56.2071C39.8931 55.8168 39.7228 55.5127 39.527 55.5178C39.3311 55.5228 39.2119 55.8472 39.2119 56.2375Z" fill="#38303B"/>
<path d="M48.0194 20.285H65.6369C66.3312 20.285 67.0188 20.4224 67.6602 20.6892C68.3016 20.9561 68.8843 21.3472 69.3751 21.8402C69.8659 22.3332 70.255 22.9184 70.5203 23.5625C70.7856 24.2065 70.9218 24.8967 70.9213 25.5936V40.9185C70.9213 41.6151 70.7846 42.3048 70.519 42.9483C70.2534 43.5918 69.8642 44.1766 69.3735 44.6691C68.8828 45.1616 68.3003 45.5523 67.6591 45.8189C67.018 46.0854 66.3309 46.2226 65.6369 46.2226H54.1005L46.408 54.6893C46.3407 54.7533 46.2553 54.7949 46.1635 54.8083C46.0717 54.8218 45.978 54.8064 45.8953 54.7644C45.8125 54.7224 45.7447 54.6557 45.7011 54.5735C45.6576 54.4913 45.6403 54.3976 45.6518 54.3052L47.3668 46.1729C46.089 46.0133 44.9132 45.3908 44.0603 44.4225C43.2075 43.4541 42.7362 42.2065 42.7351 40.914V25.5936C42.7351 24.1865 43.2917 22.8369 44.2826 21.8415C45.2735 20.8461 46.6175 20.2862 48.0194 20.285Z" fill="white" stroke="#777776" stroke-width="0.99" stroke-miterlimit="10"/>
<path d="M51.1916 29.9217C51.2135 33.2744 56.5636 42.1293 56.5636 42.1293C56.5636 42.1293 61.8046 33.1905 61.7609 29.8378C61.7173 26.4851 59.3501 23.776 56.4326 23.8086C53.5151 23.8413 51.1654 26.5691 51.1916 29.9217ZM53.6331 29.6326C53.6391 29.0345 53.8105 28.4516 54.1258 27.9571C54.4411 27.4626 54.8862 27.0786 55.4052 26.8533C55.9243 26.628 56.4941 26.5714 57.0431 26.6907C57.5921 26.81 58.0959 27.0998 58.4912 27.5238C58.8865 27.9477 59.1556 28.4869 59.2648 29.0736C59.374 29.6603 59.3185 30.2684 59.1051 30.8215C58.8917 31.3746 58.53 31.8481 58.0654 32.1824C57.6008 32.5168 57.054 32.6971 56.4938 32.7008C56.117 32.7009 55.7439 32.6214 55.396 32.467C55.048 32.3127 54.7321 32.0864 54.4663 31.8013C54.2005 31.5162 53.99 31.1779 53.847 30.8057C53.704 30.4336 53.6313 30.0349 53.6331 29.6326Z" fill="#EA6237"/>
</svg>
