<svg width="79" height="148" viewBox="0 0 79 148" fill="none" xmlns="http://www.w3.org/2000/svg">
<path d="M48.8338 16.3031C53.1904 16.3031 56.7221 12.8723 56.7221 8.64017C56.7221 4.40808 53.1904 0.977295 48.8338 0.977295C44.4773 0.977295 40.9456 4.40808 40.9456 8.64017C40.9456 12.8723 44.4773 16.3031 48.8338 16.3031Z" stroke="#D8E1EF" stroke-width="0.71" stroke-miterlimit="10"/>
<path d="M64.013 70.6998C63.7605 70.4165 63.5884 70.0554 63.5186 69.6622C63.4487 69.2689 63.4842 68.8612 63.6205 68.4907C63.7569 68.1201 63.988 67.8034 64.2846 67.5805C64.5812 67.3576 64.9299 67.2386 65.2867 67.2386C65.6434 67.2386 65.9922 67.3576 66.2888 67.5805C66.5854 67.8034 66.8164 68.1201 66.9528 68.4907C67.0892 68.8612 67.1247 69.2689 67.0548 69.6622C66.9849 70.0554 66.8128 70.4165 66.5603 70.6998C66.3934 70.8885 66.195 71.0384 65.9764 71.1406C65.7578 71.2428 65.5234 71.2955 65.2867 71.2955C65.0499 71.2955 64.8155 71.2428 64.5969 71.1406C64.3783 71.0384 64.1799 70.8885 64.013 70.6998Z" stroke="#D8E1EF" stroke-width="0.71" stroke-miterlimit="10"/>
<path d="M55.1572 147.023C56.1057 144.382 57.872 141.799 60.6163 140.851C63.6431 139.812 67.7828 140.664 69.5153 138.069C69.9293 137.4 70.097 136.613 69.9904 135.837C69.8837 135.062 69.5092 134.346 68.9294 133.809C68.3172 133.289 67.5473 132.98 66.7388 132.932C65.9302 132.885 65.1282 133.1 64.4567 133.544C63.7991 131.475 65.7214 129.496 67.6563 128.411C69.5912 127.327 71.9056 126.437 72.8541 124.483C73.8026 122.529 71.7116 119.516 69.7598 120.567C69.0769 120.944 68.5711 121.738 67.7785 121.701C66.986 121.664 66.5139 120.724 66.6994 119.987C66.8848 119.251 67.4961 118.7 68.0778 118.191L73.3852 113.567C74.7848 112.346 76.2687 110.976 76.5385 109.175C76.8082 107.374 75.0714 105.251 73.2714 105.822C71.9772 106.236 70.9023 107.83 69.6713 107.254C68.5584 106.729 68.9505 105.118 69.6123 104.129C71.2985 101.625 73.6424 99.5755 75.2822 97.0462C76.9221 94.517 77.7525 91.1474 76.1253 88.5643C75.4382 87.4756 74.2368 86.5773 72.9173 86.6229C71.1763 86.6808 69.9664 88.2373 69.1233 89.6944C66.8451 93.6707 65.3546 98.0348 64.7307 102.556C63.2763 102.469 62.7536 100.706 62.4543 99.3395C62.155 97.9735 61.021 96.2928 59.6847 96.8185C59.4187 96.9504 59.1851 97.1376 59.0002 97.3671C58.8153 97.5966 58.6835 97.8628 58.6139 98.1473C57.2354 102.328 61.8177 106.079 63.0529 110.326C63.3817 111.46 63.4534 112.727 62.8885 113.762C62.3236 114.797 60.9915 115.496 59.8322 115.095C58.5128 114.635 56.9741 113.025 56.1647 114.109C55.7431 114.676 56.1647 115.459 56.5315 116.059C58.1179 118.578 59.2382 121.353 59.8407 124.255C60.2032 126.035 60.2959 128.08 59.0397 129.417C57.7835 130.754 54.8242 130.332 54.6766 128.531C53.7871 128.407 53.0874 129.359 53.1169 130.208C53.1464 131.057 53.648 131.831 54.0654 132.592C55.0466 134.396 55.6098 136.39 55.7148 138.433C55.8197 140.475 55.4637 142.515 54.6724 144.407" fill="#FFECE5"/>
<path d="M16.5718 84.6392C41.2063 86.1635 48.9789 77.6385 55.4678 70.9502C58.9213 67.3894 60.909 59.485 60.7723 54.4C60.6233 48.8069 56.7391 44.2092 55.0454 38.9202C52.9459 32.3609 54.2752 24.8688 51.6705 18.5136C49.7077 13.7701 45.5046 10.0927 40.6887 8.98496C35.8728 7.87717 28.5309 9.48888 24.9531 13.0996C19.9301 18.1763 17.7892 20.3044 14.3025 23.5819C11.4536 26.2556 11.4039 28.3046 8.36027 30.7492C1.14673 36.5797 -1.54904 47.7533 1.80928 56.6239C5.16759 65.4945 6.0082 77.8259 15.0603 77.6843" fill="#FFECE6"/>
<path d="M77.0145 118.174H55.3616C54.6465 118.174 53.9607 117.895 53.455 117.397C52.9494 116.899 52.6653 116.224 52.6653 115.519V113.968C52.6653 108.821 55.0018 104.652 62.1229 104.652H70.2531C77.7175 104.652 79.7107 108.821 79.7107 113.968V115.519C79.7107 115.868 79.641 116.213 79.5055 116.535C79.37 116.857 79.1714 117.15 78.921 117.397C78.6707 117.643 78.3734 117.839 78.0463 117.972C77.7192 118.106 77.3685 118.174 77.0145 118.174Z" fill="#EA6237"/>
<path d="M58.1203 117.919C57.4408 114.692 57.3692 111.346 57.9101 108.088C58.0645 107.168 58.2677 106.26 58.5185 105.367C58.5317 105.313 58.525 105.256 58.4997 105.208C58.4745 105.159 58.4328 105.124 58.3839 105.11C58.335 105.095 58.2829 105.102 58.239 105.13C58.1951 105.158 58.163 105.204 58.1498 105.258C57.2562 108.478 56.9714 111.865 57.3128 115.211C57.4121 116.159 57.5598 117.099 57.7553 118.029C57.8069 118.284 58.1645 118.175 58.124 117.919H58.1203Z" fill="#38303B"/>
<path d="M75.1644 118.476C75.7751 115.071 75.8149 111.573 75.2818 108.153C75.1309 107.178 74.9324 106.213 74.6873 105.262C74.6737 105.207 74.6407 105.16 74.5956 105.131C74.5505 105.102 74.497 105.095 74.4468 105.11C74.3965 105.125 74.3538 105.161 74.3279 105.211C74.3019 105.26 74.295 105.319 74.3085 105.374C75.149 108.659 75.4377 112.086 75.1606 115.485C75.0819 116.451 74.9555 117.412 74.7819 118.363C74.7365 118.626 75.1 118.738 75.1606 118.476H75.1644Z" fill="#38303B"/>
<path d="M60.7169 106.336C61.6033 104.74 63.0578 103.547 64.7829 103.002C65.5989 102.788 66.4518 102.763 67.2785 102.929C68.1052 103.095 68.8845 103.447 69.5588 103.96C70.4119 104.588 71.1271 105.388 71.659 106.311C71.6879 106.358 71.7341 106.392 71.7876 106.406C71.841 106.419 71.8976 106.411 71.9449 106.382C71.9923 106.354 72.0267 106.308 72.0408 106.254C72.0549 106.2 72.0475 106.142 72.0203 106.094C71.0674 104.395 69.506 103.134 67.6602 102.571C66.7863 102.356 65.876 102.341 64.9955 102.526C64.115 102.712 63.2862 103.094 62.5693 103.645C61.6732 104.315 60.9202 105.163 60.3557 106.136C60.3284 106.185 60.321 106.242 60.3351 106.296C60.3492 106.35 60.3837 106.396 60.431 106.425C60.4784 106.453 60.5349 106.462 60.5884 106.448C60.6418 106.435 60.688 106.401 60.7169 106.353V106.336Z" fill="#38303B"/>
<path d="M71.3242 105.893C71.2364 106.018 71.1795 106.157 71.1571 106.301C71.1346 106.445 71.1471 106.591 71.1937 106.731C71.2268 106.869 71.3012 106.998 71.41 107.105C71.5187 107.211 71.6581 107.292 71.8147 107.34C71.9904 107.371 72.173 107.357 72.3387 107.298C72.5044 107.24 72.6455 107.141 72.7436 107.014C72.853 106.882 72.9214 106.73 72.9424 106.57C72.9634 106.41 72.9363 106.249 72.8636 106.1C72.7996 105.923 72.6621 105.77 72.4761 105.672C72.2902 105.573 72.0683 105.534 71.8512 105.562C71.8181 105.569 71.7869 105.582 71.7597 105.599C71.7324 105.617 71.7096 105.639 71.6926 105.664C71.6755 105.689 71.6646 105.717 71.6605 105.745C71.6564 105.774 71.6591 105.803 71.6686 105.831C71.6892 105.887 71.7341 105.934 71.7942 105.963C71.8543 105.991 71.9251 106 71.9921 105.986C72.0495 105.986 71.9504 105.986 71.9921 105.986H72.0756C72.0756 105.986 72.013 105.986 72.0756 105.986H72.1487C72.0861 105.986 72.1487 105.986 72.1904 106.012L72.2531 106.065L72.2791 106.096L72.3418 106.184C72.3418 106.184 72.3418 106.228 72.3418 106.184C72.3418 106.14 72.3418 106.215 72.3418 106.211C72.3418 106.206 72.3418 106.264 72.3679 106.286C72.3654 106.299 72.3654 106.312 72.3679 106.325C72.3679 106.387 72.3679 106.299 72.3679 106.325C72.3705 106.359 72.3705 106.393 72.3679 106.427V106.475C72.3679 106.475 72.3679 106.431 72.3679 106.475C72.3708 106.499 72.3708 106.523 72.3679 106.546C72.3702 106.558 72.3702 106.57 72.3679 106.581C72.3679 106.634 72.3679 106.555 72.3679 106.581C72.3525 106.609 72.335 106.635 72.3157 106.661C72.3157 106.661 72.253 106.731 72.3157 106.692L72.2635 106.74L72.227 106.771C72.227 106.771 72.1852 106.798 72.227 106.771C72.2687 106.745 72.227 106.771 72.227 106.771L72.18 106.798H72.1435C72.1121 106.798 72.1435 106.798 72.1435 106.798C72.1435 106.798 72.0756 106.798 72.0652 106.798C72.0547 106.798 72.0652 106.798 72.0652 106.798H72.013C71.966 106.798 72.0704 106.798 72.013 106.798C71.9556 106.798 71.9504 106.798 71.9452 106.798C71.9399 106.798 71.9921 106.82 71.9452 106.798H71.9034H71.8721C71.8721 106.798 71.9191 106.833 71.8721 106.798L71.8147 106.745C71.8147 106.745 71.7886 106.714 71.8147 106.745V106.718C71.7978 106.699 71.7837 106.678 71.773 106.656C71.773 106.656 71.7312 106.577 71.773 106.63C71.7602 106.606 71.7497 106.581 71.7416 106.555C71.7299 106.528 71.7211 106.5 71.7156 106.471C71.713 106.461 71.713 106.45 71.7156 106.44C71.7156 106.392 71.7156 106.48 71.7156 106.44C71.7156 106.4 71.7156 106.33 71.7156 106.272C71.7156 106.215 71.7156 106.215 71.7156 106.25C71.7156 106.286 71.7156 106.25 71.7156 106.25V106.162V106.131C71.7156 106.087 71.7156 106.131 71.7156 106.131C71.7156 106.131 71.7469 106.078 71.7677 106.056C71.7859 106.031 71.798 106.004 71.8034 105.975C71.8088 105.946 71.8073 105.916 71.799 105.888C71.7907 105.859 71.7758 105.832 71.7552 105.809C71.7345 105.785 71.7085 105.766 71.6787 105.751C71.6489 105.736 71.6159 105.726 71.5816 105.722C71.5473 105.718 71.5124 105.72 71.4789 105.727C71.4454 105.735 71.414 105.748 71.3865 105.766C71.3591 105.783 71.3361 105.806 71.319 105.831L71.3242 105.893Z" fill="#38303B"/>
<path d="M60.4235 105.553C60.2945 105.601 60.1789 105.687 60.0887 105.802C59.9985 105.918 59.937 106.059 59.9106 106.21C59.8718 106.365 59.867 106.528 59.8966 106.685C59.9262 106.842 59.9892 106.988 60.0802 107.111C60.173 107.226 60.295 107.306 60.4293 107.339C60.5636 107.372 60.7036 107.357 60.8299 107.295C60.9487 107.222 61.048 107.113 61.1174 106.981C61.1868 106.849 61.2238 106.698 61.2245 106.543C61.2407 106.374 61.2192 106.203 61.1619 106.045C61.1047 105.888 61.0135 105.75 60.897 105.643C60.8748 105.628 60.8502 105.618 60.8245 105.614C60.7989 105.61 60.7728 105.611 60.7478 105.619C60.7228 105.626 60.6993 105.64 60.6789 105.658C60.6584 105.676 60.6414 105.698 60.6287 105.724C60.6028 105.776 60.5957 105.836 60.609 105.894C60.6223 105.951 60.6549 106 60.6997 106.03C60.6484 105.99 60.6997 106.03 60.6997 106.053L60.7194 106.08C60.747 106.116 60.6958 106.035 60.7194 106.08L60.751 106.143V106.165V106.192C60.751 106.215 60.751 106.192 60.751 106.192C60.7662 106.239 60.7781 106.287 60.7865 106.336C60.7865 106.336 60.7865 106.368 60.7865 106.381C60.7865 106.395 60.7865 106.381 60.7865 106.381C60.7865 106.381 60.7865 106.458 60.7865 106.471V106.557C60.7846 106.57 60.7846 106.584 60.7865 106.597C60.7865 106.651 60.7865 106.543 60.7865 106.597C60.7784 106.651 60.7665 106.704 60.751 106.755C60.751 106.8 60.751 106.723 60.751 106.755V106.786L60.7194 106.845C60.6958 106.89 60.747 106.809 60.7194 106.845L60.6879 106.876C60.6602 106.908 60.7234 106.876 60.6879 106.876L60.6287 106.912C60.605 106.912 60.676 106.912 60.6287 106.912H60.5932H60.5695C60.53 106.912 60.6208 106.912 60.5695 106.912H60.4985C60.459 106.912 60.534 106.912 60.4985 106.912H60.4708C60.4708 106.912 60.4196 106.89 60.4117 106.912C60.4038 106.935 60.4511 106.912 60.4117 106.912H60.388L60.3564 106.89C60.3209 106.863 60.384 106.917 60.3564 106.89C60.3384 106.872 60.3212 106.852 60.3051 106.831L60.2854 106.804V106.827C60.2843 106.818 60.2843 106.809 60.2854 106.8L60.2499 106.732C60.2499 106.692 60.2499 106.732 60.2499 106.732C60.241 106.712 60.2343 106.691 60.2302 106.669V106.593C60.2302 106.539 60.2302 106.642 60.2302 106.593V106.48C60.2284 106.464 60.2284 106.447 60.2302 106.431C60.2302 106.381 60.2302 106.476 60.2302 106.431C60.2409 106.368 60.2554 106.307 60.2736 106.246C60.2736 106.197 60.2538 106.291 60.2736 106.246V106.206C60.2866 106.179 60.3011 106.154 60.317 106.129C60.3406 106.084 60.2854 106.165 60.317 106.129L60.3446 106.089L60.3683 106.066H60.388L60.4472 106.026C60.4669 106.026 60.3998 106.026 60.4472 106.026H60.4906C60.5429 106.01 60.5875 105.97 60.6145 105.917C60.6415 105.863 60.6487 105.8 60.6346 105.74C60.6205 105.68 60.5861 105.629 60.5391 105.599C60.4922 105.568 60.4364 105.559 60.384 105.576L60.4235 105.553Z" fill="#38303B"/>
<path d="M70.2357 103.544V102.964C70.2357 102.784 70.2845 102.525 70.1543 102.385C69.9856 102.236 69.8011 102.109 69.6046 102.007C69.4133 101.888 69.1975 101.779 69.0143 101.682C68.6103 101.483 68.1889 101.329 67.7563 101.221C66.9239 101.014 66.0612 100.99 65.2199 101.151C64.346 101.303 63.5128 101.656 62.7772 102.187C62.5899 102.332 62.6306 102.582 62.6184 102.81L62.5818 103.487C62.5818 103.768 62.9889 103.768 62.9889 103.487L63.0459 102.402L62.9441 102.591C63.9874 101.857 65.2082 101.473 66.4535 101.485C67.7042 101.53 68.9154 101.968 69.9385 102.745L69.8367 102.556V103.53C69.8367 103.589 69.8582 103.645 69.8963 103.686C69.9345 103.727 69.9863 103.75 70.0403 103.75C70.0943 103.75 70.146 103.727 70.1842 103.686C70.2224 103.645 70.2438 103.589 70.2438 103.53L70.2357 103.544Z" fill="#38303B"/>
<path d="M60.3935 76.1189C61.636 80.7801 62.2946 83.6115 63.3383 88.0461C63.7234 89.6946 64.8707 94.3352 65.2186 95.9797C65.6328 97.859 64.0506 98.9759 63.0773 96.3053C62.2904 94.1415 61.4662 92.5095 60.7248 90.6013C58.7037 85.3878 56.6204 81.3035 55.3696 75.3523" fill="#86514D"/>
<path d="M34.0086 138.583L34.4533 140.948C34.4882 141.101 34.4986 141.258 34.4845 141.413C34.4 142.016 33.6305 142.341 33.337 142.891C33.2978 142.946 33.2791 143.01 33.2836 143.075C33.2836 143.28 33.6039 143.344 33.8396 143.352L35.881 143.417C36.1345 143.417 36.4414 143.417 36.5837 143.224C36.64 143.134 36.672 143.034 36.6771 142.931C36.8995 141.44 37.1204 139.949 37.3398 138.458" fill="#86514D"/>
<path d="M51.5548 138.583L51.1769 140.948C51.1441 141.101 51.1333 141.257 51.1448 141.413C51.2211 142.016 51.9045 142.341 52.1698 142.891C52.2021 142.947 52.2175 143.011 52.214 143.075C52.214 143.28 51.9286 143.344 51.7236 143.352L49.9067 143.417C49.6776 143.417 49.4083 143.417 49.2797 143.224C49.2288 143.134 49.1999 143.034 49.1953 142.931C48.997 141.44 48.8013 139.949 48.6084 138.458" fill="#86514D"/>
<path d="M58.0115 145.939L53.6332 146.1C53.1592 146.159 52.6776 146.096 52.236 145.918C52.0038 145.798 51.7716 145.612 51.5146 145.661C51.2575 145.709 51.1746 145.874 50.9922 145.959C50.8263 146.023 50.6481 146.052 50.4698 146.043L48.8404 146.08C48.6614 146.102 48.4801 146.061 48.3304 145.963C48.2616 145.886 48.2114 145.795 48.1835 145.697C48.1555 145.598 48.1505 145.495 48.1687 145.395C48.2094 144.584 48.3599 143.782 48.6165 143.01C48.6787 142.837 48.7658 142.639 48.944 142.583C49.1189 142.561 49.2957 142.606 49.4374 142.708C50.051 143.042 50.8595 143.28 51.4275 142.873C51.5609 142.751 51.7084 142.644 51.867 142.555C52.0623 142.502 52.2687 142.502 52.464 142.555C54.186 142.865 55.8586 143.393 57.4393 144.126C57.8113 144.266 58.1368 144.503 58.3805 144.811C58.4948 144.969 58.5442 145.162 58.5189 145.354C58.4936 145.546 58.3954 145.721 58.2437 145.846" fill="#38303B"/>
<path d="M54.6318 142.995C54.4562 143.128 54.3109 143.296 54.2051 143.487C54.0994 143.679 54.0355 143.89 54.0178 144.107C54.0165 144.135 54.0212 144.163 54.0316 144.189C54.0419 144.216 54.0577 144.239 54.0779 144.259C54.1087 144.288 54.1473 144.307 54.189 144.315C54.2307 144.322 54.2737 144.318 54.3128 144.301C54.3519 144.285 54.3853 144.258 54.4092 144.224C54.433 144.189 54.4462 144.149 54.4471 144.107C54.4471 144.069 54.4471 144.141 54.4471 144.107V144.078V144.014C54.4471 143.972 54.4686 143.934 54.4815 143.892C54.4944 143.849 54.5072 143.811 54.5244 143.769C54.5416 143.727 54.5244 143.769 54.5244 143.769C54.522 143.758 54.522 143.746 54.5244 143.735L54.5545 143.676L54.6146 143.57L54.6532 143.519C54.6532 143.541 54.6532 143.519 54.6532 143.519C54.681 143.486 54.7112 143.455 54.7434 143.426C54.757 143.41 54.7729 143.396 54.7906 143.384L54.8121 143.363C54.8616 143.334 54.8976 143.288 54.9121 143.233C54.9266 143.178 54.9184 143.12 54.8894 143.071C54.8603 143.023 54.8128 142.987 54.7572 142.973C54.7017 142.959 54.6426 142.967 54.5931 142.995H54.6318Z" fill="#F09532"/>
<path d="M53.1325 142.543C52.7025 142.848 52.3901 143.222 52.224 143.631C52.2147 143.655 52.2123 143.679 52.2169 143.704C52.2215 143.728 52.233 143.752 52.2508 143.773C52.2686 143.795 52.2923 143.813 52.3206 143.828C52.3489 143.843 52.3812 143.854 52.4157 143.861C52.4502 143.867 52.4862 143.869 52.5216 143.866C52.557 143.863 52.5912 143.855 52.6221 143.842C52.6531 143.83 52.6802 143.814 52.702 143.794C52.7238 143.775 52.7399 143.752 52.7492 143.729C52.7492 143.685 52.7859 143.638 52.8069 143.595C52.816 143.573 52.8283 143.552 52.8437 143.533C52.8407 143.52 52.8407 143.506 52.8437 143.493C52.8437 143.493 52.8437 143.471 52.8437 143.493C52.8976 143.406 52.9589 143.321 53.0275 143.239C53.0958 143.16 53.1693 143.087 53.2481 143.011C53.3268 142.935 53.2113 143.044 53.2481 143.011L53.2796 142.986L53.3426 142.935C53.3888 142.896 53.4379 142.858 53.4896 142.822C53.5141 142.806 53.5335 142.786 53.5468 142.764C53.56 142.743 53.5669 142.719 53.5669 142.696C53.5669 142.672 53.56 142.649 53.5468 142.627C53.5335 142.605 53.5141 142.585 53.4896 142.569C53.4652 142.552 53.4362 142.538 53.4042 142.529C53.3722 142.52 53.3379 142.515 53.3032 142.515C53.2685 142.515 53.2342 142.52 53.2022 142.529C53.1702 142.538 53.1412 142.552 53.1168 142.569L53.1325 142.543Z" fill="#F09532"/>
<path d="M27.9395 145.941L32.3179 146.102C32.7923 146.157 33.2734 146.093 33.7152 145.917C33.9474 145.8 34.1795 145.61 34.4366 145.663C34.6937 145.715 34.7766 145.872 34.959 145.961C35.1249 146.025 35.3031 146.054 35.4815 146.045L37.1109 146.078C37.2894 146.101 37.4705 146.061 37.6209 145.965C37.6893 145.887 37.7389 145.795 37.7662 145.696C37.7934 145.597 37.7976 145.494 37.7785 145.393C37.7413 144.584 37.592 143.783 37.3348 143.013C37.2726 142.835 37.1855 142.642 37.0073 142.586C36.9206 142.573 36.8322 142.577 36.7474 142.599C36.6625 142.62 36.5831 142.658 36.5139 142.711C35.9002 143.045 35.0917 143.282 34.5237 142.876C34.3903 142.754 34.2428 142.647 34.0842 142.558C33.888 142.501 33.6792 142.501 33.483 142.558C31.7604 142.866 30.0874 143.394 28.5075 144.128C28.1347 144.268 27.8089 144.505 27.5664 144.813C27.4529 144.971 27.4041 145.165 27.4294 145.356C27.4547 145.547 27.5523 145.723 27.7032 145.848" fill="#38303B"/>
<path d="M39.5931 69.4916C36.0616 66.4167 33.8706 64.6678 30.4563 61.8886C29.1995 60.8581 25.6302 57.8941 24.3567 56.9006C22.8946 55.7634 21.4619 56.7528 23.4141 58.748C24.9893 60.3614 26.112 61.7941 27.4903 63.2638C31.2606 67.2706 34.0465 70.8668 38.6589 74.4508" fill="#86514D"/>
<path d="M25.1689 57.4212C24.3682 56.5318 24.245 55.7509 23.937 54.9491C23.7033 54.3761 23.4173 53.8267 23.0829 53.3079L21.5512 50.7648C21.4978 50.6771 21.4198 50.5769 21.3336 50.5936C21.2473 50.6103 21.2186 50.8191 21.2514 50.961L21.6251 52.5437C21.6269 52.5487 21.627 52.5541 21.6256 52.5592C21.6241 52.5643 21.6212 52.5687 21.6171 52.572C21.613 52.5752 21.608 52.577 21.6028 52.5772C21.5976 52.5774 21.5925 52.5759 21.5882 52.573C20.8281 51.8088 19.9818 51.1388 19.0669 50.5769C18.8656 50.5017 18.8205 50.7021 18.9272 50.8817L21.0379 53.3163C21.0625 53.3413 21.0379 53.3831 21.0051 53.3622L19.1326 51.8631C18.9064 51.6604 18.6481 51.498 18.3688 51.3828C18.3466 51.3765 18.3232 51.3766 18.3011 51.3831C18.279 51.3896 18.2592 51.4022 18.2438 51.4196C18.2284 51.437 18.2181 51.4584 18.2141 51.4814C18.21 51.5044 18.2124 51.5281 18.221 51.5499C18.3087 51.7991 18.457 52.0218 18.6521 52.1971C19.294 52.8209 19.891 53.4908 20.4384 54.2016C19.8134 53.7415 19.2117 53.2495 18.6357 52.7275C18.4949 52.5878 18.3133 52.4984 18.1183 52.4727C17.954 52.4727 17.9089 52.6314 18.0115 52.7901C18.5343 53.5749 19.1664 54.2782 19.8881 54.8781C19.9169 54.8781 19.8881 54.9449 19.8635 54.9282C19.8389 54.9115 18.299 53.5376 18.147 53.8216C17.9951 54.1055 18.3565 54.4062 18.5577 54.6234C19.6828 55.8219 21.4321 57.367 22.816 58.1019C23.3235 58.3332 23.7697 58.6839 24.1177 59.125" fill="#86514D"/>
<path d="M23.3376 57.135C22.6237 56.3035 22.4727 55.2696 22.34 54.2909C22.3171 54.1253 21.9922 54.1253 22.0151 54.2909C22.1569 55.3137 22.3125 56.3955 23.0539 57.2638C23.1729 57.4036 23.4566 57.2638 23.3376 57.135Z" fill="#794642"/>
<path d="M45.7472 101.786H45.0874L40.5227 120.769L38.1283 138.901C38.1204 138.961 38.0914 139.017 38.0465 139.057C38.0017 139.098 37.9438 139.121 37.8835 139.122L34.0617 139.23C34.0174 139.231 33.9734 139.223 33.9325 139.205C33.8917 139.188 33.8547 139.163 33.824 139.131C33.7932 139.099 33.7694 139.061 33.7539 139.019C33.7384 138.978 33.7316 138.933 33.7338 138.889L34.6343 120.002L37.954 95.2112L39.1243 90.678L53.532 91.3239L54.0175 97.1195L53.3203 121.01L52.1418 139.035C52.1354 139.125 52.0942 139.21 52.0268 139.27C51.9594 139.331 51.8712 139.363 51.7808 139.36L48.5856 139.251C48.4974 139.248 48.4137 139.212 48.3513 139.149C48.2889 139.086 48.2525 139.002 48.2494 138.914L47.6145 120.902L45.7472 101.786Z" fill="#671900"/>
<path d="M47.6793 59.7586C47.5978 59.577 47.4765 59.4231 47.3273 59.3122C47.1781 59.2013 47.0063 59.1374 46.829 59.1266C46.6517 59.1159 46.475 59.1588 46.3166 59.2511C46.1581 59.3434 46.0234 59.4818 45.9259 59.6526C45.905 59.6928 45.8988 59.7408 45.9086 59.7862C45.9185 59.8317 45.9436 59.8707 45.9785 59.8948C46.0148 59.9174 46.0573 59.9232 46.0972 59.911C46.1371 59.8988 46.1715 59.8696 46.1933 59.8292C46.2635 59.7104 46.3596 59.615 46.472 59.5526C46.5844 59.4902 46.7091 59.463 46.8336 59.4738C46.958 59.4845 47.0778 59.5328 47.1809 59.6138C47.284 59.6948 47.3667 59.8057 47.4207 59.9352C47.5127 60.1421 47.7801 59.9604 47.6881 59.7586H47.6793Z" fill="#38303B"/>
<path d="M50.6751 60.1908C50.7541 60.0866 50.8572 60.0052 50.9747 59.9543C51.0921 59.9034 51.2201 59.8847 51.3464 59.9001C51.4698 59.9207 51.5861 59.9739 51.6843 60.0546C51.7824 60.1354 51.8592 60.241 51.9073 60.3615C51.9205 60.4021 51.9478 60.436 51.9838 60.4565C52.0198 60.477 52.0619 60.4826 52.1017 60.4722C52.1214 60.4669 52.1398 60.4575 52.1559 60.4445C52.172 60.4316 52.1855 60.4153 52.1954 60.3968C52.2053 60.3782 52.2115 60.3577 52.2136 60.3366C52.2157 60.3155 52.2137 60.2941 52.2077 60.2738C52.145 60.0999 52.0405 59.9458 51.9044 59.8262C51.7683 59.7066 51.6051 59.6256 51.4304 59.5909C51.2506 59.5594 51.0661 59.5774 50.895 59.6429C50.7239 59.7084 50.572 59.8193 50.4543 59.9647C50.4267 59.9961 50.4114 60.0373 50.4114 60.08C50.4114 60.1227 50.4267 60.1639 50.4543 60.1954C50.484 60.2253 50.5235 60.242 50.5647 60.242C50.6059 60.242 50.6455 60.2253 50.6751 60.1954V60.1908Z" fill="#38303B"/>
<g opacity="0.46">
<path opacity="0.46" d="M53.636 101.953C52.6924 101.008 52.0479 99.806 51.7828 98.4974C51.7288 98.2316 51.3216 98.3437 51.3673 98.6095C51.6505 99.9871 52.3308 101.252 53.3244 102.248C53.5197 102.435 53.8147 102.14 53.6235 101.953H53.636Z" fill="#F2E2C8"/>
</g>
<g opacity="0.46">
<path opacity="0.46" d="M39.5419 97.9533C39.0516 99.2782 38.3453 100.624 37.107 101.384C37.0654 101.414 37.0366 101.459 37.0259 101.509C37.0153 101.559 37.0238 101.612 37.0496 101.656C37.0755 101.701 37.1169 101.734 37.1659 101.749C37.2149 101.765 37.2679 101.762 37.3148 101.741C38.6569 100.91 39.4131 99.4941 39.945 98.0654C40.0405 97.8121 39.6333 97.7041 39.5295 97.9533H39.5419Z" fill="#F2E2C8"/>
</g>
<g opacity="0.46">
<path opacity="0.46" d="M37.884 137.167C36.5253 137.217 35.1624 137.167 33.7995 137.167C33.7515 137.177 33.7084 137.203 33.6774 137.241C33.6463 137.279 33.6294 137.326 33.6294 137.375C33.6294 137.424 33.6463 137.471 33.6774 137.509C33.7084 137.547 33.7515 137.573 33.7995 137.583C35.1624 137.583 36.5253 137.612 37.884 137.562C38.154 137.562 38.154 137.147 37.884 137.147V137.167Z" fill="#F2E2C8"/>
</g>
<g opacity="0.46">
<path opacity="0.46" d="M51.7745 137.545C50.5778 137.545 49.377 137.45 48.1803 137.387C47.9103 137.387 47.9103 137.803 48.1803 137.803C49.377 137.865 50.5778 137.94 51.7745 137.956C51.8296 137.956 51.8824 137.935 51.9214 137.896C51.9603 137.857 51.9822 137.804 51.9822 137.749C51.9822 137.694 51.9603 137.641 51.9214 137.602C51.8824 137.563 51.8296 137.541 51.7745 137.541V137.545Z" fill="#F2E2C8"/>
</g>
<path d="M58.9476 73.4847C56.7751 71.8286 55.0853 70.6403 51.7558 70.305C50.0577 70.1352 47.0653 69.4065 44.7888 69.1498C44.5349 69.1208 39.166 67.5723 38.9371 67.6965C38.7082 67.8208 38.4585 67.415 37.5637 68.6778C36.8853 69.6342 36.1653 70.5575 35.8615 71.7085C35.5577 72.8596 35.2372 73.344 36.0571 74.1555C36.877 74.967 38.7831 76.0393 39.2867 77.1407C39.5021 77.7703 39.5353 78.4474 39.3825 79.0949L36.9852 96.1407C36.8835 96.522 36.9311 96.9274 37.1184 97.2752C37.2518 97.4097 37.4136 97.5129 37.5922 97.5774C37.7707 97.6419 37.9615 97.6659 38.1505 97.6478L53.5038 98.3227C53.8351 98.3788 54.1754 98.3046 54.4527 98.1156C54.7077 97.8025 54.8315 97.4035 54.7982 97.0019C55.0104 91.6194 55.7929 86.0051 55.8386 80.6144C56.5586 79.8277 56.1841 81.8814 57.1371 81.4797C57.5825 81.2893 60.4042 77.9853 60.6123 77.5174C61.4073 75.7164 59.1099 73.5965 58.9476 73.4847Z" fill="#F2E2C8"/>
<path d="M51.1872 63.1818C52.2368 62.7587 53.0876 61.9583 53.5703 60.94C54.0231 59.9434 54.3095 58.8802 54.4184 57.7921C54.499 57.2443 54.5329 56.6122 54.1131 56.2287C53.8762 56.0462 53.6007 55.9194 53.3074 55.8579C52.0962 55.4921 50.8498 55.2534 49.5885 55.1457C48.1977 55.0193 46.387 54.9729 45.17 55.6093C44.9831 55.6879 44.8217 55.8162 44.7035 55.9801C44.614 56.1561 44.5716 56.352 44.5805 56.549C44.5212 57.8764 44.5085 59.246 45.0046 60.4891C45.5007 61.7322 46.6626 62.8279 48.062 62.9374" fill="#38303B"/>
<path d="M46.3854 70.2269C46.2222 70.1154 46.0956 69.9581 46.0216 69.7748C45.9477 69.5915 45.9297 69.3904 45.9699 69.1969C46.2275 67.897 46.6721 65.7374 46.8425 64.8403C46.8476 64.7873 46.8647 64.7362 46.8923 64.6908C46.9229 64.6593 46.9598 64.6349 47.0007 64.6191C47.0416 64.6033 47.0854 64.5966 47.1292 64.5994C47.8397 64.5496 48.5544 64.7531 49.2649 64.6783C49.8466 64.6202 50.4408 64.3751 50.9975 64.5537C51.0554 64.5708 51.1073 64.6039 51.1471 64.6492C51.181 64.7158 51.1927 64.7915 51.1804 64.8652C51.1804 65.1974 51.1305 65.5297 51.0973 65.8619C51.01 66.7216 50.8479 68.6612 50.7399 69.849C50.7257 70.03 50.6615 70.2035 50.5543 70.3502C50.4472 70.4969 50.3014 70.6109 50.1333 70.6796C49.5389 70.9335 48.8901 71.0335 48.2469 70.9703C47.5802 70.8588 46.9454 70.6053 46.3854 70.2269Z" fill="#86514D"/>
<path d="M51.1304 64.6492C51.0906 64.6039 51.0387 64.5708 50.9808 64.5537C50.4241 64.3751 49.8299 64.6202 49.2482 64.6783C48.5377 64.7531 47.823 64.5496 47.1125 64.5994C47.0687 64.5966 47.0249 64.6033 46.984 64.6191C46.9431 64.6349 46.9062 64.6593 46.8756 64.6908C46.848 64.7362 46.8309 64.7873 46.8258 64.8403C46.7219 65.3677 46.6222 65.8952 46.5225 66.4226C47.071 66.857 47.722 67.143 48.413 67.2533C48.8909 67.3201 49.3778 67.2725 49.8336 67.1143C50.2894 66.9562 50.7012 66.6921 51.0349 66.3437C51.0349 66.1859 51.0639 66.0281 51.0806 65.8703C51.1138 65.538 51.147 65.2058 51.1637 64.8735C51.1779 64.7971 51.1662 64.7182 51.1304 64.6492Z" fill="#794642"/>
<path d="M53.4365 61.4056C53.1706 64.5371 50.6859 66.8836 48.6665 66.7175C46.6471 66.5514 44.5862 63.8103 44.848 60.6871C45.1098 57.564 47.5488 55.7615 49.5723 55.9318C51.5958 56.1021 53.7066 58.2783 53.4365 61.4056Z" fill="#86514D"/>
<path d="M53.0959 62.61C53.3638 62.5672 53.6132 62.4467 53.8133 62.2637C54.0135 62.0806 54.1555 61.843 54.222 61.5801C54.2405 61.4478 54.232 61.3131 54.1968 61.1843C54.1616 61.0555 54.1006 60.9351 54.0174 60.8306C53.9342 60.7261 53.8306 60.6396 53.7129 60.5764C53.5952 60.5132 53.4659 60.4745 53.3328 60.4629" fill="#86514D"/>
<path d="M45.1141 61.958C44.8568 61.8718 44.6307 61.7115 44.4643 61.4972C44.298 61.2829 44.1988 61.0242 44.1792 60.7536C44.1833 60.6202 44.2144 60.4891 44.2708 60.3681C44.3271 60.2472 44.4075 60.139 44.5069 60.05C44.6064 59.961 44.723 59.8932 44.8495 59.8507C44.976 59.8082 45.1098 59.7918 45.2429 59.8025" fill="#86514D"/>
<path d="M48.1411 58.6137C48.1704 58.6346 48.1411 58.6696 48.0865 58.6743C48.039 58.6747 47.9928 58.6656 47.9564 58.6486C47.7175 58.562 47.4435 58.5098 47.1592 58.4968C46.8748 58.4838 46.5892 58.5103 46.328 58.574C46.2512 58.5989 46.1649 58.6132 46.0761 58.616C46.0308 58.6154 45.9877 58.6051 45.9556 58.5873C45.9236 58.5695 45.9051 58.5456 45.9041 58.5204C45.9071 58.4977 45.9216 58.4758 45.946 58.4575C46.04 58.382 46.1732 58.3242 46.328 58.292C46.5645 58.2358 46.8226 58.2137 47.0786 58.2275C47.3346 58.2414 47.5802 58.2908 47.7927 58.3712C47.9642 58.4306 48.0932 58.5213 48.1578 58.6276" fill="#38303B"/>
<path d="M50.4266 58.7552C50.4193 58.7653 50.4144 58.7771 50.4124 58.7895C50.4104 58.802 50.4113 58.8147 50.415 58.8267C50.4187 58.8388 50.4251 58.8497 50.4337 58.8586C50.4423 58.8675 50.4528 58.8741 50.4644 58.8779C50.4873 58.883 50.511 58.8834 50.5341 58.8788C50.5572 58.8743 50.5791 58.8651 50.5987 58.8516C50.8608 58.7332 51.147 58.6848 51.4315 58.7108C51.716 58.7368 51.9898 58.8363 52.2281 59.0005C52.2972 59.0584 52.3774 59.1002 52.4632 59.1231C52.5081 59.1298 52.5537 59.1187 52.5911 59.0919C52.6284 59.0651 52.6547 59.0247 52.6648 58.9786C52.6671 58.9347 52.6584 58.8909 52.6396 58.8516C52.5692 58.6957 52.4549 58.5659 52.3121 58.4793C52.0966 58.3333 51.8491 58.2467 51.5928 58.2276C51.3365 58.2084 51.0798 58.2573 50.8465 58.3698C50.6657 58.4532 50.5176 58.5984 50.4266 58.7815" fill="#38303B"/>
<path d="M52.6635 62.7617C52.6558 62.9418 52.5809 63.1159 52.4485 63.2616C52.316 63.4072 52.1321 63.5178 51.9204 63.579C51.7087 63.6402 51.4789 63.6492 51.2607 63.6049C51.0425 63.5606 50.8459 63.465 50.6963 63.3304C50.5466 63.1958 50.4508 63.0284 50.4212 62.8498C50.3915 62.6712 50.4294 62.4896 50.53 62.3284C50.6305 62.1672 50.7891 62.0338 50.9853 61.9455C51.1815 61.8571 51.4062 61.8178 51.6306 61.8327C51.9212 61.8469 52.1929 61.9526 52.3865 62.1266C52.58 62.3007 52.6796 62.5291 52.6635 62.7617Z" fill="#794642"/>
<path d="M47.255 62.311C47.2489 62.491 47.189 62.6651 47.0831 62.8108C46.9771 62.9565 46.8299 63.067 46.6606 63.1282C46.4912 63.1894 46.3074 63.1985 46.1328 63.1541C45.9583 63.1098 45.801 63.0142 45.6813 62.8796C45.5616 62.745 45.4849 62.5776 45.4612 62.399C45.4375 62.2204 45.4678 62.0388 45.5483 61.8776C45.6287 61.7164 45.7556 61.5831 45.9125 61.4947C46.0694 61.4063 46.2492 61.367 46.4287 61.3819C46.6612 61.3961 46.8786 61.5018 47.0335 61.6759C47.1883 61.85 47.268 62.0783 47.255 62.311Z" fill="#794642"/>
<path d="M51.7638 60.4989C51.7291 60.7482 51.4976 60.9377 51.2488 60.9277C50.9999 60.9177 50.8321 60.705 50.8668 60.4557C50.9016 60.2064 51.133 60.017 51.3819 60.0269C51.6307 60.0369 51.7638 60.2496 51.7638 60.4989Z" fill="#38303B"/>
<path d="M47.2517 60.0499C47.2172 60.2966 46.9869 60.49 46.7393 60.4767C46.4917 60.4633 46.3247 60.2533 46.3593 60.0066C46.3938 59.7598 46.6241 59.5631 46.8717 59.5764C47.1193 59.5898 47.2863 59.7998 47.2517 60.0499Z" fill="#38303B"/>
<path d="M50.3892 63.9888C49.5412 64.9815 48.7423 65.1641 47.7828 64.8346C47.3185 64.5692 46.97 64.1406 46.8054 63.6326C47.3181 64.0149 47.9286 64.2449 48.5666 64.2961C49.2046 64.3473 49.8442 64.2176 50.4115 63.922" fill="#E66E60"/>
<path d="M50.2968 64.0773C49.5153 64.6059 48.5978 64.7047 47.4425 64.2205C47.1726 64.1283 46.9441 63.9174 46.8054 63.6326C47.9449 64.1949 49.211 64.3093 50.4115 63.9587L50.2968 64.0773Z" fill="white"/>
<path d="M54.1198 58.6743C53.456 58.5174 52.8344 58.2214 52.2973 57.8065C51.7601 57.3916 51.3202 56.8675 51.0073 56.2699C51.0245 56.7721 51.1369 57.2668 51.3387 57.7282C48.9188 57.2527 46.423 57.2992 44.0231 57.8646C43.9447 57.8934 43.8583 57.8934 43.7798 57.8646C43.654 57.7985 43.6414 57.6167 43.654 57.4514C43.7421 56.2989 44.0735 55.105 44.9124 54.3035C45.3448 53.8989 45.8536 53.5817 46.4099 53.3699C47.3186 52.9817 48.3021 52.7928 49.2922 52.8164C50.2824 52.8399 51.2555 53.0753 52.1441 53.5062C53.046 53.9754 53.8139 54.6599 54.3775 55.4972C54.941 56.3344 55.2822 57.2975 55.3698 58.2983" fill="#38303B"/>
<path d="M48.9092 59.2704L48.3533 61.5203L48.2181 62.0785C48.1477 62.2274 48.1388 62.3926 48.193 62.5465C48.2832 62.6839 48.4535 62.6925 48.6187 62.701L49.2698 62.7311C49.5904 62.7311 49.5904 62.3017 49.2698 62.3017L48.7239 62.276H48.5887C48.4585 62.276 48.4785 62.3017 48.6488 62.4134C48.6738 62.4134 48.6838 62.2631 48.6939 62.2287L48.9293 61.2755L49.395 59.3949C49.4601 59.1244 48.9793 59.0085 48.8942 59.279L48.9092 59.2704Z" fill="#794642"/>
<path d="M63.0327 96.2438C63.7725 97.9146 64.2361 99.6977 64.4048 101.521C64.5536 101.373 64.7427 101.272 64.948 101.233C65.1534 101.194 65.3654 101.219 65.5572 101.303C65.8971 101.479 65.7934 101.782 65.723 102.114C65.6986 102.245 65.6375 102.366 65.547 102.462C65.4566 102.558 65.3406 102.626 65.2131 102.657C65.5323 103.191 66.3448 103.346 67.0412 103.288C67.3986 103.279 67.7469 103.171 68.0484 102.976C68.579 102.577 68.521 101.824 68.1811 101.294C67.7743 100.789 67.3368 100.31 66.8712 99.8603C66.5713 99.4872 66.3141 99.0809 66.1043 98.6492C65.3914 97.2614 65.1509 95.7517 64.6908 94.2841" fill="#86514D"/>
<path d="M30.7276 143.351C30.7276 143.351 30.7654 143.381 30.7276 143.351C30.6899 143.321 30.7276 143.351 30.7276 143.351L30.7738 143.394L30.8618 143.488V143.513C30.8618 143.513 30.8409 143.483 30.8618 143.513L30.8996 143.564C30.9206 143.603 30.9457 143.641 30.9625 143.679L30.9876 143.73C30.9884 143.742 30.9884 143.753 30.9876 143.764C30.9876 143.79 30.9876 143.726 30.9876 143.764C30.9876 143.803 31.017 143.845 31.0296 143.888C31.0422 143.931 31.0506 143.969 31.0589 144.011V144.075V144.105C31.0589 144.156 31.0589 144.054 31.0589 144.105C31.0621 144.161 31.0844 144.214 31.1219 144.254C31.1613 144.293 31.2136 144.316 31.2686 144.318C31.3735 144.318 31.4951 144.224 31.4783 144.105C31.461 143.886 31.3982 143.673 31.2941 143.48C31.1901 143.286 31.0471 143.118 30.8744 142.985C30.8271 142.963 30.7736 142.96 30.7241 142.976C30.6747 142.992 30.6329 143.026 30.6068 143.072C30.5807 143.117 30.5722 143.171 30.5829 143.223C30.5936 143.274 30.6228 143.32 30.6647 143.351H30.7276Z" fill="#F09532"/>
<path d="M32.0158 142.835L32.1523 142.936L32.2153 142.986L32.2573 143.019C32.2573 143.019 32.2573 143.037 32.2573 143.019C32.3421 143.093 32.4193 143.171 32.4883 143.253C32.5513 143.332 32.6143 143.415 32.6668 143.498C32.6668 143.523 32.6668 143.458 32.6668 143.498V143.531C32.6813 143.55 32.6936 143.571 32.7036 143.592C32.7036 143.639 32.7508 143.685 32.7666 143.736C32.7873 143.781 32.8325 143.82 32.8929 143.843C32.9534 143.867 33.0246 143.873 33.0921 143.862C33.1576 143.847 33.2128 143.816 33.2468 143.775C33.2807 143.733 33.2911 143.685 33.2758 143.639C33.1095 143.231 32.7952 142.859 32.3623 142.558C32.3118 142.528 32.247 142.513 32.181 142.515C32.1149 142.517 32.0524 142.536 32.006 142.569C31.9596 142.601 31.9326 142.644 31.9305 142.69C31.9285 142.735 31.9514 142.779 31.9948 142.813L32.0158 142.835Z" fill="#F09532"/>
<path d="M37.9283 23.9659H21.8716C21.2388 23.9659 20.6122 24.0932 20.0276 24.3406C19.443 24.588 18.9119 24.9505 18.4646 25.4075C18.0173 25.8646 17.6626 26.4071 17.4209 27.0042C17.1791 27.6012 17.0549 28.241 17.0554 28.8871V43.0936C17.0554 44.3977 17.5628 45.6483 18.4661 46.5704C19.3693 47.4925 20.5943 48.0106 21.8716 48.0106H32.386L39.397 55.8593C39.4585 55.9171 39.536 55.9542 39.6188 55.9658C39.7017 55.9774 39.786 55.9629 39.8606 55.9241C39.9351 55.8854 39.9962 55.8243 40.0358 55.7491C40.0754 55.6739 40.0915 55.5882 40.0821 55.5033L38.5232 47.9645C39.6878 47.8176 40.7598 47.2415 41.5379 46.3446C42.3159 45.4477 42.7465 44.2917 42.7486 43.0936V28.8871C42.7486 27.5819 42.2407 26.3302 41.3368 25.4073C40.4328 24.4844 39.2067 23.9659 37.9283 23.9659Z" fill="white" stroke="#777776" stroke-width="0.99" stroke-miterlimit="10"/>
<path d="M30.1703 27.5721C27.43 27.5515 25.1936 29.9428 25.169 32.9123C25.1445 35.8819 30.0474 43.7993 30.0474 43.7993C30.0474 43.7993 35.065 35.9521 35.0855 32.9867C35.106 30.0213 32.9064 27.5928 30.1703 27.5721ZM30.1129 35.4482C29.5738 35.4539 29.0451 35.2977 28.5943 34.9994C28.1435 34.7011 27.791 34.2743 27.5817 33.7732C27.3724 33.2722 27.3157 32.7197 27.4189 32.186C27.5221 31.6524 27.7805 31.1618 28.1611 30.7768C28.5418 30.3918 29.0276 30.1298 29.5565 30.0241C30.0854 29.9184 30.6335 29.9739 31.131 30.1834C31.6286 30.393 32.053 30.7471 32.3502 31.2008C32.6474 31.6544 32.8039 32.187 32.7999 32.7306C32.7999 33.4499 32.5171 34.1399 32.0134 34.6493C31.5097 35.1587 30.8263 35.446 30.1129 35.4482Z" fill="#EA6237"/>
</svg>
