<svg width="414" height="498" viewBox="0 0 414 498" fill="none" xmlns="http://www.w3.org/2000/svg">
<path fill-rule="evenodd" clip-rule="evenodd" d="M255.497 361.753C292.394 381.575 318.835 434.237 359.451 426.512C399.694 418.859 399.571 361.089 424.087 329.689C446.814 300.579 493.209 286.607 497.333 249.911C501.467 213.12 466.164 183.653 443.975 152.697C422.906 123.305 403.606 92.6645 371.718 74.6708C336.412 54.7484 296.08 41.0326 256.412 46.8601C215.006 52.943 174.527 73.2298 151.971 106.953C130.405 139.198 138.729 181.115 140.549 220.089C142.173 254.885 139.402 292.628 161.935 320.399C183.723 347.251 224.721 345.219 255.497 361.753Z" fill="#EA6237" fill-opacity="0.1"/>
<path d="M26.883 5.31174H181.216C199.039 5.31174 213.487 19.7533 213.487 37.5679V461.488C213.487 479.302 199.039 493.744 181.216 493.744H26.883C9.06029 493.744 -5.38789 479.302 -5.38789 461.488V37.5679C-5.38789 19.7533 9.06029 5.31174 26.883 5.31174Z" fill="white" stroke="#1D1D1B" stroke-miterlimit="10"/>
<path d="M191.007 31.4683C191.212 31.3879 191.369 31.2708 191.479 31.1171C191.589 30.9635 191.644 30.7769 191.644 30.5574C191.644 30.3599 191.594 30.1824 191.495 30.0251C191.397 29.8641 191.25 29.7379 191.056 29.6465C190.859 29.5514 190.621 29.5038 190.343 29.5038C190.065 29.5038 189.829 29.5514 189.635 29.6465C189.437 29.7379 189.289 29.8641 189.191 30.0251C189.088 30.1824 189.037 30.3599 189.037 30.5574C189.037 30.7696 189.094 30.9562 189.207 31.1171C189.32 31.2745 189.476 31.3915 189.673 31.4683C189.447 31.5379 189.267 31.6604 189.136 31.836C189 32.008 188.933 32.2165 188.933 32.4616C188.933 32.6994 188.991 32.9079 189.108 33.0872C189.225 33.2628 189.392 33.4 189.608 33.4988C189.82 33.5939 190.065 33.6414 190.343 33.6414C190.621 33.6414 190.866 33.5939 191.078 33.4988C191.287 33.4 191.45 33.2628 191.567 33.0872C191.684 32.9079 191.742 32.6994 191.742 32.4616C191.742 32.2165 191.676 32.0061 191.545 31.8305C191.413 31.6549 191.234 31.5342 191.007 31.4683ZM189.52 30.6178C189.52 30.3946 189.593 30.2227 189.739 30.1019C189.886 29.9812 190.087 29.9209 190.343 29.9209C190.595 29.9209 190.795 29.9812 190.941 30.1019C191.087 30.2227 191.161 30.3964 191.161 30.6233C191.161 30.8281 191.086 30.9928 190.936 31.1171C190.782 31.2415 190.584 31.3037 190.343 31.3037C190.098 31.3037 189.9 31.2415 189.75 31.1171C189.597 30.9891 189.52 30.8226 189.52 30.6178ZM190.343 31.6879C190.614 31.6879 190.835 31.7519 191.007 31.8799C191.179 32.0043 191.265 32.1927 191.265 32.4451C191.265 32.6793 191.183 32.8677 191.018 33.0104C190.85 33.153 190.625 33.2244 190.343 33.2244C190.061 33.2244 189.838 33.153 189.673 33.0104C189.509 32.8677 189.427 32.6793 189.427 32.4451C189.427 32.2 189.511 32.0134 189.679 31.8854C189.847 31.7537 190.069 31.6879 190.343 31.6879ZM188.028 33.5646C188.123 33.5646 188.204 33.5317 188.269 33.4658C188.335 33.4 188.368 33.3195 188.368 33.2244C188.368 33.1293 188.335 33.0488 188.269 32.9829C188.204 32.9171 188.123 32.8841 188.028 32.8841C187.937 32.8841 187.86 32.9171 187.797 32.9829C187.732 33.0488 187.699 33.1293 187.699 33.2244C187.699 33.3195 187.732 33.4 187.797 33.4658C187.86 33.5317 187.937 33.5646 188.028 33.5646ZM188.028 31.2159C188.123 31.2159 188.204 31.183 188.269 31.1171C188.335 31.0513 188.368 30.9708 188.368 30.8757C188.368 30.7806 188.335 30.7001 188.269 30.6342C188.204 30.5684 188.123 30.5355 188.028 30.5355C187.937 30.5355 187.86 30.5684 187.797 30.6342C187.732 30.7001 187.699 30.7806 187.699 30.8757C187.699 30.9708 187.732 31.0513 187.797 31.1171C187.86 31.183 187.937 31.2159 188.028 31.2159ZM187.112 30.5629C187.087 30.2263 186.957 29.9629 186.723 29.7727C186.488 29.5825 186.185 29.4873 185.812 29.4873C185.563 29.4873 185.349 29.5331 185.17 29.6245C184.987 29.7123 184.849 29.8331 184.758 29.9867C184.663 30.1404 184.615 30.3141 184.615 30.508C184.615 30.7348 184.681 30.9306 184.813 31.0952C184.941 31.2598 185.109 31.3659 185.318 31.4135V31.4409C185.08 31.4994 184.892 31.6147 184.752 31.7866C184.613 31.9586 184.544 32.1836 184.544 32.4616C184.544 32.6701 184.592 32.8585 184.687 33.0268C184.782 33.1914 184.924 33.3213 185.115 33.4164C185.305 33.5116 185.534 33.5591 185.801 33.5591C186.188 33.5591 186.507 33.4585 186.755 33.2573C187.004 33.0524 187.143 32.7634 187.173 32.3903H186.69C186.664 32.6098 186.574 32.789 186.421 32.928C186.267 33.0671 186.062 33.1366 185.806 33.1366C185.55 33.1366 185.356 33.0707 185.224 32.939C185.089 32.8037 185.021 32.6299 185.021 32.4177C185.021 32.1433 185.113 31.9458 185.296 31.825C185.479 31.7043 185.755 31.644 186.124 31.644H186.251V31.2269H186.119C185.782 31.2232 185.528 31.1684 185.356 31.0623C185.184 30.9525 185.098 30.7842 185.098 30.5574C185.098 30.3635 185.162 30.208 185.29 30.091C185.415 29.9739 185.594 29.9154 185.828 29.9154C186.055 29.9154 186.238 29.9739 186.377 30.091C186.516 30.208 186.598 30.3653 186.624 30.5629H187.112ZM183.87 31.5068C183.87 30.8775 183.767 30.3873 183.562 30.0361C183.358 29.6812 182.999 29.5038 182.487 29.5038C181.978 29.5038 181.622 29.6812 181.417 30.0361C181.212 30.3873 181.109 30.8775 181.109 31.5068C181.109 32.147 181.212 32.6445 181.417 32.9994C181.622 33.3542 181.978 33.5317 182.487 33.5317C182.999 33.5317 183.358 33.3542 183.562 32.9994C183.767 32.6445 183.87 32.147 183.87 31.5068ZM181.603 31.5068C181.603 31.1885 181.625 30.9196 181.669 30.7001C181.709 30.4769 181.795 30.2977 181.927 30.1623C182.055 30.0269 182.242 29.9593 182.487 29.9593C182.736 29.9593 182.926 30.0269 183.058 30.1623C183.186 30.2977 183.272 30.4769 183.315 30.7001C183.356 30.9196 183.376 31.1885 183.376 31.5068C183.376 31.836 183.356 32.1122 183.315 32.3354C183.272 32.5585 183.186 32.7378 183.058 32.8732C182.926 33.0085 182.736 33.0762 182.487 33.0762C182.242 33.0762 182.055 33.0085 181.927 32.8732C181.795 32.7378 181.709 32.5585 181.669 32.3354C181.625 32.1122 181.603 31.836 181.603 31.5068Z" fill="#817E84"/>
<path d="M50.9387 32.8516H52.6379V35.7993H50.9387V32.8516Z" fill="#817E84"/>
<path d="M48.5096 31.6725H50.2087V35.8133H48.5096V31.6725Z" fill="#817E84"/>
<path d="M46.0801 30.5215H47.7793V35.7992H46.0801V30.5215Z" fill="#817E84"/>
<path d="M43.6506 29.2161H45.3499V35.8133H43.6506V29.2161Z" fill="#817E84"/>
<path d="M39.9715 32.5708C39.4892 32.0535 38.9056 31.641 38.2569 31.3589C37.6082 31.0768 36.9084 30.9313 36.2009 30.9313C35.4935 30.9313 34.7937 31.0768 34.145 31.3589C33.4963 31.641 32.9127 32.0535 32.4304 32.5708L31.2929 31.3497C31.9211 30.6746 32.6818 30.1362 33.5274 29.768C34.3731 29.3998 35.2856 29.2098 36.208 29.2098C37.1304 29.2098 38.0428 29.3998 38.8885 29.768C39.7341 30.1362 40.4948 30.6746 41.123 31.3497L39.9715 32.5708Z" fill="#817E84"/>
<path d="M38.4546 34.1851C38.1645 33.8788 37.815 33.6349 37.4275 33.4682C37.04 33.3014 36.6225 33.2155 36.2006 33.2155C35.7787 33.2155 35.3613 33.3014 34.9738 33.4682C34.5862 33.6349 34.2367 33.8788 33.9467 34.1851L32.8092 32.9779C33.2429 32.5124 33.7678 32.1412 34.3513 31.8874C34.9348 31.6336 35.5643 31.5026 36.2006 31.5026C36.837 31.5026 37.4665 31.6336 38.05 31.8874C38.6334 32.1412 39.1584 32.5124 39.592 32.9779L38.4546 34.1851Z" fill="#817E84"/>
<path d="M36.924 35.7993C36.7324 35.6237 36.4819 35.5263 36.2219 35.5263C35.9619 35.5263 35.7114 35.6237 35.5197 35.7993L34.3682 34.5921C34.6106 34.3395 34.9017 34.1385 35.2239 34.0012C35.5461 33.8639 35.8927 33.7931 36.2429 33.7931C36.5932 33.7931 36.9398 33.8639 37.262 34.0012C37.5841 34.1385 37.8752 34.3395 38.1177 34.5921L36.924 35.7993Z" fill="#817E84"/>
<path d="M18.4292 30.0162H28.5963C28.767 30.0162 28.9053 30.1544 28.9053 30.325V34.7044C28.9053 34.8749 28.767 35.0132 28.5963 35.0132H18.4292C18.2585 35.0132 18.1202 34.8749 18.1202 34.7044V30.325C18.1202 30.1544 18.2585 30.0162 18.4292 30.0162Z" fill="#817E84"/>
<path d="M17.3198 31.4339H17.5726C17.7433 31.4339 17.8816 31.5721 17.8816 31.7427V33.2727C17.8816 33.4432 17.7433 33.5815 17.5726 33.5815H17.3198C17.1492 33.5815 17.0109 33.4432 17.0109 33.2727V31.7427C17.0109 31.5721 17.1492 31.4339 17.3198 31.4339Z" fill="#817E84"/>
<path d="M22.3193 58.693H186.258C194.828 58.693 201.776 65.6372 201.776 74.2034V332.603C201.776 341.17 194.828 348.114 186.258 348.114H22.3193C13.7491 348.114 6.80171 341.17 6.80171 332.603V74.2034C6.80171 65.6372 13.7491 58.693 22.3193 58.693Z" fill="#F0EFED"/>
<path d="M65.0663 102.501L73.2534 122.63" stroke="white" stroke-width="0.99" stroke-miterlimit="10"/>
<path d="M162.553 292.992L132.445 296.628" stroke="white" stroke-width="0.99" stroke-miterlimit="10"/>
<path d="M182.733 49.0077L131.616 138.477" stroke="white" stroke-width="0.99" stroke-miterlimit="10"/>
<path d="M41.165 96.2268L52.1326 124.833" stroke="white" stroke-width="0.99" stroke-miterlimit="10"/>
<path d="M113.655 128.104L76.2445 166.003C74.4152 167.87 73.2507 170.287 72.9304 172.881V172.881C72.8697 173.407 72.8368 173.937 72.8321 174.467V347.791L57.1039 365.618" stroke="white" stroke-width="1.42" stroke-miterlimit="10"/>
<path d="M75.3177 43.4071L112.981 128.792" stroke="white" stroke-width="1.42" stroke-miterlimit="10"/>
<path d="M65.1787 102.613L94.5708 88.0856" stroke="white" stroke-width="0.99" stroke-miterlimit="10"/>
<path d="M73.2534 307.52L3.69813 307.955" stroke="white" stroke-width="0.99" stroke-miterlimit="10"/>
<path d="M205.3 125.718L170.319 160.936L112.574 128.581" stroke="white" stroke-width="1.42" stroke-miterlimit="10"/>
<path d="M170.319 160.936L164.421 189.009C159.138 214.205 157.765 240.063 160.349 265.677L170.53 366.53" stroke="white" stroke-width="1.42" stroke-miterlimit="10"/>
<path d="M160.447 209.643L124.988 198.568C124.988 195.929 124.581 183.815 124.581 183.815L98.9101 174.579" stroke="white" stroke-width="1.42" stroke-miterlimit="10"/>
<path d="M110.917 179.422L104.499 253.044" stroke="white" stroke-width="0.99" stroke-miterlimit="10"/>
<path d="M88.673 153.342L98.9104 175.786" stroke="white" stroke-width="0.99" stroke-miterlimit="10"/>
<path d="M143.202 203.186L154.802 152.022" stroke="white" stroke-width="0.99" stroke-miterlimit="10"/>
<path d="M91.5654 252.16L92.7029 289.693" stroke="white" stroke-width="0.99" stroke-miterlimit="10"/>
<path d="M150.238 175.014L130.268 167.87" stroke="white" stroke-width="0.99" stroke-miterlimit="10"/>
<path d="M130.268 167.87L133.681 153.665" stroke="white" stroke-width="0.99" stroke-miterlimit="10"/>
<path d="M72.0037 214.64H33.9189V147.292L22.544 104.143L88.3499 72.4488" stroke="white" stroke-width="1.42" stroke-miterlimit="10"/>
<path d="M206.129 246.77L185.008 253.816L192.044 293.427L163.073 298.705" stroke="white" stroke-width="1.42" stroke-miterlimit="10"/>
<path d="M187.494 268.779L161.416 274.057" stroke="white" stroke-width="0.99" stroke-miterlimit="10"/>
<path d="M165.558 184.264L188.744 192.63L207.786 181.626" stroke="white" stroke-width="1.42" stroke-miterlimit="10"/>
<path d="M39.7185 307.955L39.3112 366.067" stroke="white" stroke-width="0.99" stroke-miterlimit="10"/>
<path d="M73.2534 326.891L119.61 324.687" stroke="white" stroke-width="1.42" stroke-miterlimit="10"/>
<path d="M123.752 366.502L116.717 273.186L160.18 267.895" stroke="white" stroke-width="1.42" stroke-miterlimit="10"/>
<path d="M148.581 350.767L146.32 327.845L133.639 329.403L131.827 311.155" stroke="white" stroke-width="0.99" stroke-miterlimit="10"/>
<path d="M72.4248 242.362C71.8069 242.362 28.8913 241.043 28.8913 241.043V253.367L-4.64356 253.816" stroke="white" stroke-width="0.99" stroke-miterlimit="10"/>
<path d="M38.8901 335.691C37.6543 335.242 15.2978 335.242 15.2978 335.242" stroke="white" stroke-width="0.99" stroke-miterlimit="10"/>
<path d="M33.9187 147.292L60.418 147.727" stroke="white" stroke-width="0.99" stroke-miterlimit="10"/>
<path d="M130.999 296.291C130.788 295.631 125.817 251.374 125.817 251.374L73.8573 252.693" stroke="white" stroke-width="1.42" stroke-miterlimit="10"/>
<path d="M152.765 84.4502C154.61 84.5125 156.357 85.2987 157.626 86.6385C158.896 87.9783 159.586 89.7639 159.548 91.6088C159.548 95.6093 152.934 106.263 152.934 106.263C152.934 106.263 146.123 95.7075 146.095 91.7211C146.026 89.8758 146.688 88.0776 147.936 86.7166C149.185 85.3555 150.92 84.5412 152.765 84.4502ZM152.85 95.0478C153.58 95.0534 154.295 94.8417 154.904 94.4397C155.513 94.0378 155.989 93.4637 156.271 92.7906C156.553 92.1175 156.629 91.3757 156.487 90.6597C156.346 89.9437 155.995 89.2859 155.479 88.7699C154.963 88.2539 154.305 87.903 153.588 87.762C152.872 87.621 152.13 87.6962 151.457 87.978C150.783 88.2599 150.209 88.7356 149.807 89.3446C149.405 89.9537 149.193 90.6686 149.198 91.3983C149.196 91.8781 149.29 92.3535 149.472 92.7971C149.655 93.2407 149.924 93.6438 150.264 93.983C150.603 94.3223 151.006 94.591 151.45 94.7738C151.894 94.9565 152.37 95.0497 152.85 95.0478Z" fill="#252525"/>
<path d="M152.47 104.326L130.97 140.948L154.858 156.079L143.862 207.355L124.286 201.993L115.678 254.728H68.872" stroke="#EA6237" stroke-width="1.42" stroke-miterlimit="10" stroke-linecap="round"/>
<path d="M61.5416 255.276C61.5416 256.689 61.9608 258.07 62.7462 259.245C63.5316 260.42 64.648 261.336 65.9541 261.877C67.2602 262.417 68.6974 262.559 70.084 262.283C71.4705 262.007 72.7441 261.327 73.7438 260.328C74.7435 259.329 75.4242 258.055 75.7001 256.67C75.9759 255.284 75.8343 253.847 75.2933 252.542C74.7523 251.236 73.8361 250.12 72.6607 249.335C71.4852 248.55 70.1032 248.131 68.6895 248.131C66.7937 248.131 64.9756 248.884 63.6351 250.224C62.2946 251.564 61.5416 253.381 61.5416 255.276Z" fill="#252525"/>
<path d="M64.8415 255.276C64.8415 256.036 65.0672 256.78 65.49 257.412C65.9128 258.045 66.5137 258.538 67.2168 258.829C67.9199 259.12 68.6936 259.196 69.44 259.048C70.1864 258.899 70.872 258.533 71.4101 257.995C71.9482 257.457 72.3147 256.772 72.4632 256.026C72.6116 255.28 72.5354 254.507 72.2442 253.804C71.953 253.101 71.4598 252.5 70.827 252.078C70.1942 251.655 69.4503 251.43 68.6893 251.43C67.6688 251.43 66.6901 251.835 65.9685 252.556C65.2469 253.277 64.8415 254.256 64.8415 255.276Z" fill="#F0EFED"/>
<path d="M28.6385 291.209H23.7796C23.5511 291.22 23.3361 291.321 23.1811 291.489C23.026 291.657 22.9434 291.879 22.9511 292.108V297.273C22.9548 297.388 22.936 297.501 22.8956 297.609C22.8553 297.716 22.7943 297.814 22.716 297.897C22.6378 297.98 22.5439 298.048 22.4396 298.095C22.3354 298.142 22.2228 298.168 22.1085 298.172C21.88 298.161 21.665 298.06 21.51 297.892C21.3549 297.724 21.2723 297.502 21.2799 297.273V292.108C21.2837 291.994 21.2648 291.88 21.2245 291.773C21.1842 291.666 21.1232 291.568 21.0449 291.484C20.9666 291.401 20.8727 291.333 20.7685 291.286C20.6642 291.239 20.5517 291.213 20.4373 291.209H15.5784C15.4659 291.206 15.3552 291.18 15.2527 291.134C15.1501 291.087 15.0578 291.021 14.9808 290.939C14.9039 290.857 14.8439 290.76 14.8042 290.655C14.7646 290.55 14.7462 290.438 14.7499 290.325C14.7462 290.213 14.7646 290.101 14.8042 289.995C14.8439 289.89 14.9039 289.793 14.9808 289.711C15.0578 289.629 15.1501 289.563 15.2527 289.517C15.3552 289.47 15.4659 289.444 15.5784 289.441H20.4233C20.5377 289.437 20.6502 289.411 20.7544 289.364C20.8587 289.317 20.9526 289.25 21.0309 289.166C21.1091 289.083 21.1702 288.985 21.2105 288.878C21.2508 288.771 21.2696 288.657 21.2659 288.543V283.377C21.2582 283.149 21.3409 282.926 21.4959 282.758C21.651 282.59 21.866 282.49 22.0944 282.479C22.2088 282.482 22.3213 282.508 22.4256 282.556C22.5298 282.603 22.6237 282.67 22.702 282.753C22.7802 282.837 22.8413 282.935 22.8816 283.042C22.922 283.149 22.9407 283.263 22.937 283.377V288.543C22.9294 288.771 23.012 288.993 23.167 289.161C23.3221 289.33 23.5371 289.43 23.7655 289.441H28.6385C28.751 289.444 28.8617 289.47 28.9643 289.517C29.0668 289.563 29.1592 289.629 29.2361 289.711C29.3131 289.793 29.3731 289.89 29.4127 289.995C29.4523 290.101 29.4708 290.213 29.4671 290.325C29.4708 290.438 29.4523 290.55 29.4127 290.655C29.3731 290.76 29.3131 290.857 29.2361 290.939C29.1592 291.021 29.0668 291.087 28.9643 291.134C28.8617 291.18 28.751 291.206 28.6385 291.209Z" fill="white"/>
<path d="M49.5767 268.947H41.6424C41.27 268.947 40.9128 269.095 40.6494 269.358C40.3861 269.622 40.2381 269.979 40.2381 270.351V278.296C40.2381 278.668 40.0902 279.025 39.8268 279.288C39.5635 279.552 39.2062 279.699 38.8338 279.699C38.4614 279.699 38.1042 279.552 37.8408 279.288C37.5775 279.025 37.4295 278.668 37.4295 278.296V270.365C37.4295 269.993 37.2816 269.636 37.0182 269.373C36.7548 269.109 36.3976 268.961 36.0252 268.961H28.2172C27.8448 268.961 27.4876 268.814 27.2243 268.55C26.9609 268.287 26.8129 267.93 26.8129 267.558C26.8129 267.185 26.9609 266.828 27.2243 266.565C27.4876 266.302 27.8448 266.154 28.2172 266.154H36.1516C36.524 266.154 36.8812 266.006 37.1446 265.743C37.4079 265.48 37.5559 265.123 37.5559 264.75V256.82C37.5559 256.447 37.7038 256.09 37.9672 255.827C38.2306 255.564 38.5877 255.416 38.9602 255.416C39.3326 255.416 39.6898 255.564 39.9532 255.827C40.2166 256.09 40.3645 256.447 40.3645 256.82V264.75C40.3645 265.123 40.5125 265.48 40.7758 265.743C41.0392 266.006 41.3963 266.154 41.7688 266.154H49.7031C50.0756 266.154 50.4328 266.302 50.6961 266.565C50.9595 266.828 51.1074 267.185 51.1074 267.558C51.1063 267.752 51.0648 267.944 50.9856 268.121C50.9064 268.299 50.7912 268.458 50.6473 268.588C50.5034 268.719 50.334 268.818 50.1497 268.88C49.9654 268.942 49.7703 268.965 49.5767 268.947Z" fill="white"/>
<path d="M231.42 476.689C233.695 456.888 234.992 437.008 235.31 417.048C235.394 411.854 235.38 406.534 233.611 401.607C231.631 396.189 227.643 391.782 223.781 387.571C217.939 381.17 211.999 374.699 204.71 370.011C195.217 363.905 183.955 361.154 172.748 359.82C163.149 358.868 153.508 358.4 143.862 358.417L57.0333 356.901C49.8152 356.774 42.5269 356.648 35.4632 358.122C27.0374 359.863 19.2154 363.737 11.59 367.695C-0.00956726 373.562 -12.2832 380.033 -18.6868 391.333C-23.9249 400.513 -23.6862 411.208 -24.1496 421.764C-24.922 439.759 -24.8798 457.656 -22.3661 475.889C-22.2558 477.186 -21.8886 478.449 -21.2859 479.603C-20.6832 480.757 -19.857 481.78 -18.8554 482.613C-17.0728 483.669 -15.0292 484.204 -12.9573 484.157C9.25883 485.462 31.7418 480.858 53.7052 484.48" fill="#252525"/>
<path d="M49.2817 311.24H158.818L144.775 285.482C144.171 284.379 143.281 283.458 142.199 282.816C141.117 282.174 139.882 281.835 138.624 281.833H69.5458C68.2875 281.835 67.0527 282.174 65.9706 282.816C64.8885 283.458 63.999 284.379 63.395 285.482L49.2817 311.24Z" fill="#252525"/>
<path d="M54.7168 309.794H153.454L140.253 287.827C139.866 287.174 139.316 286.634 138.655 286.259C137.995 285.885 137.249 285.69 136.49 285.693H71.6809C70.9219 285.69 70.1753 285.885 69.5151 286.259C68.855 286.634 68.3041 287.174 67.9173 287.827L54.7168 309.794Z" fill="#F0EFED"/>
<path d="M2.40594 372.187L210.468 375.738L188.589 317.977C187.823 315.722 186.389 313.752 184.479 312.328C182.568 310.904 180.27 310.094 177.888 310.004L36.3761 308.938C34.0453 308.983 31.7817 309.726 29.877 311.069C27.9722 312.413 26.5137 314.296 25.6894 316.475L2.40594 372.187Z" fill="#252525"/>
<path d="M8.21999 371.962L204.64 375.148L183.983 322.399C183.222 320.314 181.854 318.505 180.054 317.207C178.254 315.908 176.105 315.179 173.886 315.114L40.2943 314.145C38.1207 314.171 36.0033 314.839 34.209 316.065C32.4146 317.292 31.0237 319.022 30.2114 321.037L8.21999 371.962Z" fill="#F0EFED"/>
<path d="M47.2878 438.187C47.2878 438.187 90.5545 442.131 105.019 442.131C119.202 442.131 161.626 438.187 161.626 438.187C164.758 438.187 167.244 436.18 167.244 433.723V428.109C167.244 425.652 164.702 423.659 161.626 423.659C161.626 423.659 119.497 419.911 105.454 419.911C90.8915 419.911 47.2316 423.659 47.2316 423.659C44.086 423.659 41.5441 425.652 41.5441 428.109V433.723C41.6003 436.18 44.1421 438.187 47.2878 438.187Z" fill="#F0EFED"/>
<path d="M36.8961 458.077H172.004C173.028 458.077 173.858 458.906 173.858 459.93V461.726C173.858 462.75 173.028 463.579 172.004 463.579H36.8961C35.8723 463.579 35.0424 462.75 35.0424 461.726V459.93C35.0424 458.906 35.8723 458.077 36.8961 458.077Z" fill="#F0EFED"/>
<path d="M-22.0988 472.127H230.999C235.358 472.127 238.892 475.659 238.892 480.016V489.28C238.892 493.637 235.358 497.169 230.999 497.169H-22.0988C-26.4575 497.169 -29.991 493.637 -29.991 489.28V480.016C-29.991 475.659 -26.4575 472.127 -22.0988 472.127Z" fill="#C4C4C4"/>
<path opacity="0.14" d="M238.863 487.441V490.487C238.952 492.174 238.369 493.827 237.244 495.086C236.118 496.346 234.54 497.109 232.853 497.211H-23.9807C-25.6674 497.109 -27.2455 496.346 -28.3714 495.086C-29.4972 493.827 -30.0794 492.174 -29.9912 490.487V487.441H238.863Z" fill="#38303B"/>
<path d="M208.348 371.864C210.833 371.639 213.459 371.373 215.454 369.857C216.601 368.863 217.599 367.71 218.417 366.432C220.562 363.26 223.581 360.778 227.109 359.287C228.878 358.574 230.812 358.374 232.69 358.709C234.568 359.044 236.313 359.901 237.726 361.182C240.759 364.312 240.633 369.674 238.091 373.197C236.724 374.896 234.995 376.268 233.029 377.213C231.063 378.158 228.911 378.651 226.73 378.658C224.162 378.672 221.598 378.432 219.077 377.942L207.519 376.089" fill="#252525"/>
<path d="M4.17561 371.864C1.68999 371.639 -0.936056 371.373 -2.93017 369.857C-4.07748 368.863 -5.07547 367.71 -5.89328 366.432C-8.03848 363.26 -11.058 360.778 -14.5859 359.287C-16.3574 358.575 -18.2935 358.375 -20.1732 358.71C-22.053 359.045 -23.8006 359.902 -25.2165 361.182C-28.2358 364.312 -28.1234 369.674 -25.5676 373.197C-24.2007 374.896 -22.4713 376.268 -20.5056 377.213C-18.5399 378.158 -16.3878 378.651 -14.2067 378.658C-11.6383 378.671 -9.07477 378.431 -6.5533 377.942L5.00415 376.089" fill="#252525"/>
<path d="M177.467 435.506C184.071 437.415 191.041 437.688 197.775 436.301C204.508 434.915 210.802 431.91 216.114 427.547C220.327 423.968 224.048 419.237 224.905 413.721C225.067 412.956 225.024 412.162 224.778 411.419C224.188 410.015 222.391 409.412 220.818 409.201C209.584 407.685 198.49 412.486 188.814 418.339C184.418 421.126 180.434 424.514 176.976 428.403C175.318 430.214 173.984 433.33 175.908 434.874" fill="#F0EFED"/>
<path d="M31.5737 435.506C24.9717 437.414 18.0041 437.686 11.2732 436.3C4.54225 434.913 -1.74966 431.909 -7.0588 427.547C-11.3419 423.968 -15.0072 419.237 -15.8498 413.721C-16.0173 412.957 -15.9785 412.163 -15.7374 411.419C-15.1336 410.015 -13.3501 409.412 -11.7632 409.201C-0.528793 407.685 10.5652 412.486 20.2409 418.339C24.6322 421.127 28.6121 424.514 32.0651 428.403C33.7363 430.214 35.0704 433.33 33.1465 434.874" fill="#F0EFED"/>
<path d="M236.502 195.461H224.462V197.575H229.222V205.261H231.742V197.575H236.502V195.461ZM241.099 196.875C239.377 196.875 237.725 197.183 236.045 197.729L236.899 199.479C238.593 198.975 239.909 198.877 240.987 198.877C242.107 198.877 244.123 199.003 244.123 200.571C243.045 200.207 241.743 199.983 240.329 199.983C237.711 199.983 235.359 200.655 235.359 202.797C235.359 204.659 236.801 205.401 239.111 205.401C241.057 205.401 242.667 204.953 244.123 204.239V205.261H246.531V201.103C246.503 197.981 244.543 196.875 241.099 196.875ZM244.123 202.699C242.891 203.231 241.099 203.637 239.797 203.637C238.551 203.637 237.753 203.567 237.753 202.699C237.753 201.859 238.831 201.551 240.623 201.551C242.149 201.551 243.283 201.789 244.123 202.055V202.699ZM246.488 205.261H249.708L252.732 202.531L255.756 205.261H258.976L254.328 201.145L258.976 197.015H255.756L252.732 199.745L249.708 197.015H246.488L251.122 201.145L246.488 205.261ZM258.961 194.061V196.147H261.355V194.061H258.961ZM258.961 197.015V205.261H261.355V197.015H258.961ZM274.037 195.685C274.653 195.685 275.213 195.713 275.759 195.755V194.061C274.541 193.921 274.107 193.921 273.281 193.921C270.873 193.921 269.865 194.719 269.865 196.399V197.015H267.695V199.017H269.865V205.261H272.273V199.017H275.759V197.015H272.273C272.315 195.979 272.665 195.685 274.037 195.685ZM281.338 196.875C279.616 196.875 277.964 197.183 276.284 197.729L277.138 199.479C278.832 198.975 280.148 198.877 281.226 198.877C282.346 198.877 284.362 199.003 284.362 200.571C283.284 200.207 281.982 199.983 280.568 199.983C277.95 199.983 275.598 200.655 275.598 202.797C275.598 204.659 277.04 205.401 279.35 205.401C281.296 205.401 282.906 204.953 284.362 204.239V205.261H286.77V201.103C286.742 197.981 284.782 196.875 281.338 196.875ZM284.362 202.699C283.13 203.231 281.338 203.637 280.036 203.637C278.79 203.637 277.992 203.567 277.992 202.699C277.992 201.859 279.07 201.551 280.862 201.551C282.388 201.551 283.522 201.789 284.362 202.055V202.699ZM293.9 196.875C292.36 196.875 290.904 197.309 289.672 198.415V197.015H287.278V205.261H289.672V200.319C291.128 199.185 292.668 198.877 294.012 198.877C294.712 198.877 295.342 198.961 296.126 199.157V197.155C295.566 197.015 294.88 196.875 293.9 196.875ZM301.365 203.455C299.769 203.455 298.509 203.021 298.243 201.705H307.147C307.147 197.953 304.641 196.875 301.505 196.875C298.159 196.875 295.793 198.107 295.793 201.145C295.793 204.169 298.229 205.401 301.365 205.401C304.417 205.401 306.461 204.407 307.007 202.307H304.627C304.025 203.147 303.017 203.455 301.365 203.455ZM301.491 198.695C303.003 198.695 304.179 199.017 304.585 200.179H298.327C298.705 199.017 299.853 198.695 301.491 198.695ZM321.832 199.017V197.015H317.926V194.621L315.518 195.307V197.015H313.348V199.017H315.518V202.783C315.518 204.603 316.89 205.401 319.018 205.401C320.124 205.401 321.034 205.331 321.832 205.191V203.259C320.866 203.399 320.446 203.399 319.69 203.399C318.234 203.399 317.926 202.993 317.926 201.397V199.017H321.832ZM327.578 205.401C330.98 205.401 333.29 204.169 333.29 201.145C333.29 198.107 330.98 196.875 327.578 196.875C324.162 196.875 321.866 198.107 321.866 201.145C321.866 204.169 324.162 205.401 327.578 205.401ZM327.578 203.399C325.352 203.399 324.26 202.853 324.26 201.145C324.26 199.423 325.352 198.877 327.578 198.877C329.79 198.877 330.882 199.423 330.882 201.145C330.882 202.853 329.79 203.399 327.578 203.399ZM339.132 205.401C342.534 205.401 344.844 204.169 344.844 201.145C344.844 198.107 342.534 196.875 339.132 196.875C335.716 196.875 333.42 198.107 333.42 201.145C333.42 204.169 335.716 205.401 339.132 205.401ZM339.132 203.399C336.906 203.399 335.814 202.853 335.814 201.145C335.814 199.423 336.906 198.877 339.132 198.877C341.344 198.877 342.436 199.423 342.436 201.145C342.436 202.853 341.344 203.399 339.132 203.399ZM358.38 196.875C356.378 196.875 354.754 197.533 353.578 198.457V194.061H351.184V205.261H353.578V200.641C354.32 199.773 356.056 198.947 357.666 198.947C359.64 198.947 360.228 199.857 360.228 201.607V205.261H362.636L362.664 200.697C362.636 197.659 360.578 196.875 358.38 196.875ZM363.216 194.061V196.147H365.61V194.061H363.216ZM363.216 197.015V205.261H365.61V197.015H363.216ZM374.977 197.015V198.345C374.151 197.421 372.765 196.875 370.805 196.875C367.977 196.875 365.961 198.107 365.961 201.019C365.961 203.931 367.977 205.163 370.805 205.163C372.751 205.163 374.137 204.617 374.977 203.693C374.879 205.807 373.955 206.759 371.477 206.759C369.657 206.759 367.809 206.353 366.843 206.171V208.103C367.641 208.313 369.615 208.761 372.009 208.761C375.131 208.761 377.385 207.305 377.385 203.945V197.015H374.977ZM371.673 203.161C369.419 203.161 368.355 202.531 368.355 201.019C368.355 199.507 369.419 198.877 371.673 198.877C373.927 198.877 374.977 199.507 374.977 201.019C374.977 202.531 373.927 203.161 371.673 203.161ZM385.137 196.875C383.135 196.875 381.511 197.533 380.335 198.457V194.061H377.941V205.261H380.335V200.641C381.077 199.773 382.813 198.947 384.423 198.947C386.397 198.947 386.985 199.857 386.985 201.607V205.261H389.393L389.421 200.697C389.393 197.659 387.335 196.875 385.137 196.875ZM401.704 202.223C401.942 200.375 406.45 201.173 406.45 198.177C406.45 196.049 404.476 195.321 401.312 195.321C398.19 195.321 395.894 196.049 395.894 199.157H398.414C398.414 197.757 399.408 197.435 401.452 197.435C403.258 197.435 403.93 197.799 403.93 198.457C403.93 200.249 399.31 199.003 399.31 202.223H401.704ZM399.31 203.385V205.261H401.704V203.385H399.31Z" fill="black" fill-opacity="0.6"/>
<path d="M227.084 239.693C227.084 249.389 235.292 251.741 249.068 251.741C261.5 251.741 269.996 249.917 269.996 240.941C269.996 232.445 261.788 231.725 248.54 231.005C238.748 230.429 236.732 229.949 236.732 227.357C236.732 224.861 238.748 224.045 247.244 224.045C256.22 224.045 259.916 224.957 259.916 228.653H268.556C268.556 220.349 260.876 217.181 248.204 217.181C235.628 217.181 228.092 219.533 228.092 226.925C228.092 234.461 233.9 236.765 248.54 237.437C259.436 237.965 261.356 238.445 261.356 241.229C261.356 243.869 258.62 244.877 249.548 244.877C238.604 244.877 235.724 243.245 235.724 239.693H227.084ZM293.761 222.509C287.665 222.509 282.769 224.189 279.697 227.357V222.989H271.441V263.261H279.697V246.893C282.769 250.109 287.665 251.741 293.761 251.741C302.881 251.741 310.609 247.949 310.609 237.149C310.609 226.349 302.881 222.509 293.761 222.509ZM291.025 244.877C283.681 244.877 279.697 242.717 279.697 237.149C279.697 231.533 283.681 229.373 291.025 229.373C298.369 229.373 302.401 231.533 302.401 237.149C302.401 242.717 298.369 244.877 291.025 244.877ZM312.037 212.861V251.261H320.245V212.861H312.037ZM322.163 212.861V220.013H330.371V212.861H322.163ZM322.163 222.989V251.261H330.371V222.989H322.163ZM360.383 229.853V222.989H346.991V214.781L338.735 217.133V222.989H331.295V229.853H338.735V242.765C338.735 249.005 343.439 251.741 350.735 251.741C354.527 251.741 357.647 251.501 360.383 251.021V244.397C357.071 244.877 355.631 244.877 353.039 244.877C348.047 244.877 346.991 243.485 346.991 238.013V229.853H360.383ZM227.564 270.861V278.013H235.772V270.861H227.564ZM227.564 280.989V309.261H235.772V280.989H227.564ZM265.783 287.853V280.989H252.391V272.781L244.135 275.133V280.989H236.695V287.853H244.135V300.765C244.135 307.005 248.839 309.741 256.135 309.741C259.927 309.741 263.047 309.501 265.783 309.021V302.397C262.471 302.877 261.031 302.877 258.439 302.877C253.447 302.877 252.391 301.485 252.391 296.013V287.853H265.783ZM276.145 275.661H267.505L267.697 298.845H275.953L276.145 275.661ZM267.697 302.829V309.261H275.905V302.829H267.697Z" fill="#EA6237"/>
</svg>
