<svg width="414" height="398" viewBox="0 0 414 398" fill="none" xmlns="http://www.w3.org/2000/svg">
<path opacity="0.3" fill-rule="evenodd" clip-rule="evenodd" d="M187.042 -79.0549C227.884 -63.8408 265.594 -34.0129 281.647 6.51921C295.149 40.611 240.953 82.6998 262.775 112.164C304.598 168.631 417.577 151.561 438.713 218.583C455.149 270.701 379.117 308.274 334.619 339.977C290.498 371.411 241.185 396.27 187.042 397.886C131.82 399.534 76.1865 383.354 32.9271 348.978C-9.24627 315.466 -30.4419 264.113 -46.1565 212.578C-61.609 161.903 -67.5333 109.506 -55.853 57.8298C-43.2495 2.06995 -27.5299 -62.0472 22.2596 -90.1064C71.4262 -117.814 134.158 -98.755 187.042 -79.0549Z" fill="#EFA189"/>
<path d="M196.508 208.306C196.539 208.59 196.555 208.875 196.555 209.161H196.508C196.432 206.88 196.384 199.334 196.384 190.382C196.384 184.984 196.384 180.099 196.432 176.507C196.432 174.768 196.432 173.342 196.489 172.297C196.489 171.831 196.489 171.451 196.489 171.156C196.466 171.024 196.466 170.889 196.489 170.757C196.501 170.89 196.501 171.023 196.489 171.156C196.489 171.451 196.489 171.831 196.489 172.297C196.489 173.342 196.489 174.768 196.546 176.507C196.546 180.099 196.546 184.984 196.593 190.382C196.593 199.334 196.546 206.88 196.47 209.161H196.508C196.481 208.876 196.481 208.59 196.508 208.306Z" fill="#F5F5F5"/>
<path d="M201.925 208.306C201.969 208.588 201.985 208.875 201.972 209.161H201.877C201.801 206.88 201.744 199.334 201.744 190.382C201.744 184.984 201.744 180.099 201.801 176.507C201.801 174.768 201.801 173.342 201.858 172.297C201.858 171.834 201.858 171.454 201.858 171.156C201.848 171.023 201.848 170.89 201.858 170.757C201.875 170.89 201.875 171.024 201.858 171.156C201.858 171.454 201.858 171.834 201.858 172.297C201.858 173.342 201.858 174.768 201.915 176.507C201.915 180.099 201.915 184.984 201.972 190.382C201.972 199.334 201.915 206.88 201.839 209.161H201.744C201.782 208.872 201.842 208.586 201.925 208.306Z" fill="#F5F5F5"/>
<path d="M199.796 222L211.694 216.298C212.797 212.62 213.909 208.933 215.125 204.894L229.38 211.232L234.18 196.331L248.435 202.518L253.073 187.531C257.188 189.431 260.676 191.256 264.325 192.491C266.316 193.166 268.474 193.166 270.464 192.491C275.606 190.42 280.529 187.787 285.67 185.297C286.411 186.713 286.877 187.54 287.286 188.395C289.728 193.518 289.899 193.594 295.126 191.189C300.695 188.633 306.274 186.096 311.776 183.425C314.114 182.285 315.901 182.475 318.277 183.824C336.429 194.022 354.685 194.582 372.228 182.703C388.841 171.441 396.111 155.209 393.659 135.423C391.207 115.636 379.993 102.027 361.451 95.1085C332.218 84.2079 300.477 103.12 295.611 133.978C295.202 136.525 294.271 137.884 291.942 138.853C287.191 140.84 282.524 143.082 277.839 145.24C269.97 148.851 269.98 148.851 272.479 157.205C270.902 158.051 269.628 158.849 268.222 159.476C250.003 167.811 201.469 189.469 185.541 196.54L180 215.424L199.796 222ZM381.513 137.418C380.055 141.201 377.507 144.466 374.192 146.799C370.877 149.132 366.944 150.429 362.891 150.526C358.839 150.622 354.849 149.514 351.426 147.341C348.004 145.168 345.304 142.028 343.667 138.319C342.03 134.61 341.531 130.499 342.233 126.506C342.935 122.514 344.806 118.819 347.609 115.89C350.412 112.962 354.021 110.931 357.979 110.055C361.937 109.179 366.066 109.497 369.843 110.97C372.356 111.931 374.654 113.38 376.604 115.235C378.553 117.089 380.116 119.312 381.201 121.774C382.287 124.236 382.873 126.889 382.926 129.579C382.98 132.269 382.5 134.943 381.513 137.447V137.418Z" fill="#EA6237"/>
<path opacity="0.3" d="M274.599 170.842L192.421 206.471C191.76 206.757 191.011 206.769 190.341 206.503C189.671 206.238 189.134 205.717 188.848 205.055C188.562 204.394 188.55 203.645 188.816 202.975C189.081 202.305 189.602 201.768 190.264 201.482L272.432 165.863C272.759 165.719 273.11 165.642 273.467 165.635C273.824 165.629 274.179 165.692 274.511 165.823C274.843 165.954 275.146 166.149 275.402 166.397C275.659 166.645 275.863 166.942 276.005 167.269C276.148 167.596 276.225 167.948 276.232 168.305C276.239 168.661 276.175 169.016 276.045 169.348C275.914 169.68 275.719 169.983 275.471 170.24C275.222 170.496 274.926 170.701 274.599 170.842Z" fill="black"/>
<path d="M279.103 171.128C279.103 171.128 279.027 171.185 278.866 171.27L278.134 171.622L275.283 172.943L264.829 177.695C256.019 181.715 243.855 187.198 230.369 193.271C216.883 199.344 204.624 204.675 195.7 208.382C191.243 210.282 187.612 211.755 185.104 212.763L182.252 213.903L181.492 214.198L181.236 214.274C181.236 214.274 181.312 214.226 181.473 214.15L182.214 213.818L185.066 212.582L195.605 208.068C204.491 204.266 216.722 198.84 230.207 192.862L264.724 177.409L275.178 172.772L278.029 171.546L278.78 171.232L279.103 171.128Z" fill="#263238"/>
<path d="M288.141 189.184C288.017 189.241 284.273 181.695 279.768 172.325C275.264 162.954 271.728 155.314 271.842 155.219C271.956 155.124 275.72 162.698 280.215 172.078C284.71 181.458 288.264 189.184 288.141 189.184Z" fill="#263238"/>
<path d="M391.331 141.838C391.331 141.838 391.331 141.581 391.274 141.087C391.217 140.593 391.198 139.842 391.131 138.892C391.131 138.404 391.103 137.862 391.046 137.266C390.979 136.677 390.856 136.031 390.751 135.366C390.647 134.7 390.523 133.912 390.399 133.113C390.242 132.26 390.039 131.417 389.791 130.585C388.718 126.253 386.99 122.109 384.669 118.297C381.641 113.219 377.659 108.775 372.941 105.211L370.955 103.728C370.252 103.263 369.511 102.845 368.788 102.398C368.066 101.951 367.334 101.448 366.536 101.096L364.141 99.946L362.925 99.3663L361.651 98.9006L359.019 97.9502C358.135 97.6556 357.213 97.4655 356.301 97.2184C355.387 96.9512 354.457 96.7417 353.516 96.5912C351.592 96.2304 349.646 96.0049 347.69 95.9165C346.693 95.9165 345.695 95.7834 344.687 95.7929L341.637 95.9545C341.123 95.9545 340.61 95.9545 340.097 96.0495L338.558 96.2871C337.531 96.4582 336.495 96.5817 335.459 96.7908C333.375 97.257 331.325 97.8602 329.32 98.5965L327.79 99.1572C327.533 99.2522 327.277 99.3378 327.03 99.4423L326.288 99.7939L323.314 101.238C322.363 101.761 321.413 102.379 320.463 102.949C319.988 103.244 319.512 103.51 319.037 103.842L317.688 104.859C315.848 106.22 314.102 107.703 312.461 109.297L310.123 111.882L309.534 112.529L309.001 113.222L307.947 114.638L306.863 116.007L305.913 117.518L304.962 119.048L304.497 119.808C304.354 120.075 304.231 120.35 304.098 120.616L302.539 123.866C302.121 124.997 301.703 126.128 301.285 127.278C298.118 136.704 298.118 146.905 301.285 156.331C301.703 157.471 302.121 158.611 302.53 159.742C302.938 160.873 303.575 161.909 304.098 162.993L304.487 163.8L304.953 164.561L305.903 166.091L306.854 167.602L307.918 169.018L308.973 170.434L309.496 171.128L310.085 171.783C310.874 172.639 311.653 173.504 312.432 174.359C314.07 175.954 315.813 177.436 317.65 178.797L319.009 179.814C319.455 180.156 319.959 180.413 320.434 180.764C321.385 181.334 322.335 181.943 323.285 182.475L326.26 183.91L327.001 184.262L327.761 184.556L329.292 185.117C331.296 185.85 333.347 186.45 335.431 186.913C336.467 187.132 337.512 187.246 338.529 187.417L340.069 187.654C340.582 187.721 341.095 187.721 341.608 187.749L344.659 187.911C345.666 187.911 346.664 187.825 347.662 187.797C349.617 187.704 351.563 187.479 353.488 187.122C354.427 186.964 355.357 186.751 356.272 186.485C357.222 186.238 358.106 186.048 358.99 185.763L361.585 184.813L362.868 184.347L364.084 183.767L366.469 182.617C367.268 182.256 367.981 181.743 368.722 181.325C369.463 180.907 370.185 180.451 370.889 179.994L372.884 178.502C377.622 174.944 381.627 170.504 384.678 165.425C386.986 161.589 388.694 157.423 389.744 153.071C389.99 152.243 390.193 151.402 390.352 150.552C390.475 149.745 390.589 148.994 390.704 148.291C390.818 147.587 390.932 146.951 390.998 146.39C391.065 145.829 391.055 145.259 391.084 144.774C391.15 143.824 391.188 143.083 391.226 142.579C391.264 142.075 391.283 141.828 391.283 141.828C391.283 141.828 391.283 142.075 391.283 142.579C391.283 143.083 391.236 143.824 391.198 144.774C391.198 145.268 391.15 145.81 391.131 146.399C391.112 146.989 390.951 147.644 390.856 148.3C390.761 148.956 390.647 149.754 390.523 150.562C390.376 151.418 390.182 152.265 389.943 153.099C388.891 157.451 387.183 161.616 384.878 165.454C381.851 170.598 377.855 175.107 373.112 178.73L371.107 180.232C370.404 180.698 369.663 181.125 368.931 181.582C368.199 182.038 367.467 182.532 366.669 182.893L364.255 184.062L363.029 184.642L361.746 185.117L359.133 186.067C358.239 186.371 357.318 186.561 356.396 186.808C355.46 187.084 354.508 187.299 353.545 187.455C351.602 187.818 349.636 188.05 347.662 188.148C346.712 188.148 345.657 188.291 344.64 188.272L341.561 188.12C341.038 188.12 340.525 188.12 340.002 188.025L338.453 187.787C337.417 187.616 336.362 187.502 335.326 187.284C333.22 186.819 331.147 186.216 329.12 185.478L327.571 184.908C327.315 184.813 327.049 184.727 326.802 184.623L326.051 184.262L323.048 182.817C322.097 182.285 321.147 181.667 320.149 181.087C319.664 180.783 319.199 180.527 318.705 180.185L317.336 179.158C315.475 177.785 313.71 176.286 312.052 174.672L309.686 172.078L309.087 171.422L308.555 170.709L307.49 169.284L306.416 167.858L305.466 166.328L304.516 164.779L304.041 164.009L303.641 163.192L302.064 159.913C301.646 158.773 301.218 157.623 300.8 156.464C297.594 146.937 297.594 136.624 300.8 127.098C301.228 125.948 301.646 124.798 302.064 123.657C302.482 122.517 303.119 121.462 303.651 120.369C303.784 120.103 303.908 119.827 304.05 119.561L304.516 118.782L305.466 117.242L306.416 115.712L307.49 114.287L308.555 112.861L309.096 112.149L309.686 111.493C310.484 110.628 311.273 109.754 312.052 108.898C313.714 107.29 315.479 105.791 317.336 104.413L318.705 103.386C319.161 103.044 319.655 102.788 320.149 102.436C321.099 101.856 322.05 101.238 323.048 100.706L326.051 99.2617L326.802 98.9006C327.049 98.796 327.315 98.7105 327.571 98.6155L329.12 98.0548C331.144 97.314 333.214 96.7076 335.317 96.2396C336.362 96.0305 337.417 95.907 338.453 95.7359L340.002 95.5078C340.515 95.4413 341.038 95.4413 341.561 95.4033L344.63 95.2512C345.647 95.2512 346.664 95.3367 347.662 95.3748C349.636 95.4742 351.601 95.706 353.545 96.0685C354.507 96.2285 355.459 96.4443 356.396 96.7148C357.346 96.9714 358.239 97.1614 359.133 97.456L361.746 98.4064L363.029 98.8816L364.255 99.4613L366.669 100.63C367.467 101.001 368.18 101.514 368.931 101.951C369.682 102.388 370.404 102.826 371.107 103.291L373.112 104.802C377.846 108.407 381.836 112.897 384.859 118.022C387.17 121.857 388.882 126.024 389.934 130.376C390.171 131.212 390.364 132.059 390.513 132.914C390.637 133.722 390.742 134.482 390.846 135.185C390.951 135.888 391.065 136.525 391.122 137.086C391.179 137.647 391.169 138.226 391.188 138.711C391.188 139.661 391.255 140.403 391.274 140.916C391.293 141.429 391.331 141.838 391.331 141.838Z" fill="#263238"/>
<path d="M307.101 110.618C306.899 111.017 306.66 111.396 306.388 111.749C305.894 112.453 305.209 113.498 304.421 114.819C303.489 116.357 302.639 117.943 301.874 119.571C300.941 121.562 300.122 123.606 299.422 125.691C298.75 127.787 298.195 129.92 297.759 132.077C297.388 134.073 297.131 135.879 296.998 137.409C296.865 138.939 296.78 140.184 296.761 141.049C296.775 141.494 296.743 141.94 296.666 142.379C296.595 141.936 296.563 141.488 296.571 141.039C296.571 140.184 296.571 138.93 296.647 137.38C296.77 135.573 296.993 133.775 297.312 131.992C298.116 127.617 299.51 123.371 301.456 119.371C302.257 117.741 303.145 116.154 304.117 114.619C304.962 113.317 305.685 112.301 306.226 111.626C306.487 111.264 306.779 110.927 307.101 110.618Z" fill="white"/>
<path d="M47.096 131.112H62.136V137H39.8V92.52H47.096V131.112ZM83.5335 137.576C80.2055 137.576 77.1975 136.829 74.5095 135.336C71.8215 133.8 69.7095 131.667 68.1735 128.936C66.6375 126.163 65.8695 122.963 65.8695 119.336C65.8695 115.752 66.6588 112.573 68.2375 109.8C69.8162 107.027 71.9708 104.893 74.7015 103.4C77.4322 101.907 80.4828 101.16 83.8535 101.16C87.2242 101.16 90.2748 101.907 93.0055 103.4C95.7362 104.893 97.8908 107.027 99.4695 109.8C101.048 112.573 101.838 115.752 101.838 119.336C101.838 122.92 101.027 126.099 99.4055 128.872C97.7842 131.645 95.5655 133.8 92.7495 135.336C89.9762 136.829 86.9042 137.576 83.5335 137.576ZM83.5335 131.24C85.4108 131.24 87.1602 130.792 88.7815 129.896C90.4455 129 91.7895 127.656 92.8135 125.864C93.8375 124.072 94.3495 121.896 94.3495 119.336C94.3495 116.776 93.8588 114.621 92.8775 112.872C91.8962 111.08 90.5948 109.736 88.9735 108.84C87.3522 107.944 85.6028 107.496 83.7255 107.496C81.8482 107.496 80.0988 107.944 78.4775 108.84C76.8988 109.736 75.6402 111.08 74.7015 112.872C73.7628 114.621 73.2935 116.776 73.2935 119.336C73.2935 123.133 74.2535 126.077 76.1735 128.168C78.1362 130.216 80.5895 131.24 83.5335 131.24ZM123.258 101.16C125.989 101.16 128.399 101.715 130.49 102.824C132.623 103.891 134.287 105.235 135.482 106.856V101.736H142.842V137.576C142.842 140.819 142.159 143.699 140.794 146.216C139.429 148.776 137.445 150.781 134.842 152.232C132.282 153.683 129.21 154.408 125.626 154.408C120.847 154.408 116.879 153.277 113.722 151.016C110.565 148.797 108.773 145.768 108.346 141.928H115.578C116.133 143.763 117.306 145.235 119.098 146.344C120.933 147.496 123.109 148.072 125.626 148.072C128.57 148.072 130.938 147.176 132.73 145.384C134.565 143.592 135.482 140.989 135.482 137.576V131.688C134.245 133.352 132.559 134.76 130.426 135.912C128.335 137.021 125.946 137.576 123.258 137.576C120.186 137.576 117.37 136.808 114.81 135.272C112.293 133.693 110.287 131.517 108.794 128.744C107.343 125.928 106.618 122.749 106.618 119.208C106.618 115.667 107.343 112.531 108.794 109.8C110.287 107.069 112.293 104.957 114.81 103.464C117.37 101.928 120.186 101.16 123.258 101.16ZM135.482 119.336C135.482 116.904 134.97 114.792 133.946 113C132.965 111.208 131.663 109.843 130.042 108.904C128.421 107.965 126.671 107.496 124.794 107.496C122.917 107.496 121.167 107.965 119.546 108.904C117.925 109.8 116.602 111.144 115.578 112.936C114.597 114.685 114.106 116.776 114.106 119.208C114.106 121.64 114.597 123.773 115.578 125.608C116.602 127.443 117.925 128.851 119.546 129.832C121.21 130.771 122.959 131.24 124.794 131.24C126.671 131.24 128.421 130.771 130.042 129.832C131.663 128.893 132.965 127.528 133.946 125.736C134.97 123.901 135.482 121.768 135.482 119.336ZM156.137 97.064C154.814 97.064 153.705 96.616 152.809 95.72C151.913 94.824 151.465 93.7147 151.465 92.392C151.465 91.0693 151.913 89.96 152.809 89.064C153.705 88.168 154.814 87.72 156.137 87.72C157.417 87.72 158.505 88.168 159.401 89.064C160.297 89.96 160.745 91.0693 160.745 92.392C160.745 93.7147 160.297 94.824 159.401 95.72C158.505 96.616 157.417 97.064 156.137 97.064ZM159.721 101.736V137H152.425V101.736H159.721ZM187.092 101.16C189.865 101.16 192.34 101.736 194.516 102.888C196.735 104.04 198.463 105.747 199.7 108.008C200.937 110.269 201.556 113 201.556 116.2V137H194.324V117.288C194.324 114.131 193.535 111.72 191.956 110.056C190.377 108.349 188.223 107.496 185.492 107.496C182.761 107.496 180.585 108.349 178.964 110.056C177.385 111.72 176.596 114.131 176.596 117.288V137H169.3V101.736H176.596V105.768C177.791 104.317 179.305 103.187 181.14 102.376C183.017 101.565 185.001 101.16 187.092 101.16Z" fill="#252525"/>
<path d="M52.3567 170.27L49.4727 180H47.6667L45.6227 172.636L43.4527 180L41.6607 180.014L38.9027 170.27H40.5967L42.6127 178.194L44.7967 170.27H46.5887L48.6187 178.152L50.6487 170.27H52.3567ZM60.743 175.954C60.743 176.243 60.7244 176.505 60.687 176.738H54.793C54.8397 177.354 55.0684 177.849 55.479 178.222C55.8897 178.595 56.3937 178.782 56.991 178.782C57.8497 178.782 58.4564 178.423 58.811 177.704H60.533C60.2997 178.413 59.875 178.997 59.259 179.454C58.6524 179.902 57.8964 180.126 56.991 180.126C56.2537 180.126 55.591 179.963 55.003 179.636C54.4244 179.3 53.967 178.833 53.631 178.236C53.3044 177.629 53.141 176.929 53.141 176.136C53.141 175.343 53.2997 174.647 53.617 174.05C53.9437 173.443 54.3964 172.977 54.975 172.65C55.563 172.323 56.235 172.16 56.991 172.16C57.719 172.16 58.3677 172.319 58.937 172.636C59.5064 172.953 59.9497 173.401 60.267 173.98C60.5844 174.549 60.743 175.207 60.743 175.954ZM59.077 175.45C59.0677 174.862 58.8577 174.391 58.447 174.036C58.0364 173.681 57.5277 173.504 56.921 173.504C56.3704 173.504 55.899 173.681 55.507 174.036C55.115 174.381 54.8817 174.853 54.807 175.45H59.077ZM76.3104 172.286L73.9164 180H72.2364L70.6824 174.302L69.1284 180H67.4484L65.0404 172.286H66.6644L68.2744 178.488L69.9124 172.286H71.5784L73.1464 178.46L74.7424 172.286H76.3104ZM80.8491 180.126C80.1211 180.126 79.4631 179.963 78.8751 179.636C78.2871 179.3 77.8251 178.833 77.4891 178.236C77.1531 177.629 76.9851 176.929 76.9851 176.136C76.9851 175.352 77.1578 174.657 77.5031 174.05C77.8485 173.443 78.3198 172.977 78.9171 172.65C79.5145 172.323 80.1818 172.16 80.9191 172.16C81.6565 172.16 82.3238 172.323 82.9211 172.65C83.5185 172.977 83.9898 173.443 84.3351 174.05C84.6805 174.657 84.8531 175.352 84.8531 176.136C84.8531 176.92 84.6758 177.615 84.3211 178.222C83.9665 178.829 83.4811 179.3 82.8651 179.636C82.2585 179.963 81.5865 180.126 80.8491 180.126ZM80.8491 178.74C81.2598 178.74 81.6425 178.642 81.9971 178.446C82.3611 178.25 82.6551 177.956 82.8791 177.564C83.1031 177.172 83.2151 176.696 83.2151 176.136C83.2151 175.576 83.1078 175.105 82.8931 174.722C82.6785 174.33 82.3938 174.036 82.0391 173.84C81.6845 173.644 81.3018 173.546 80.8911 173.546C80.4805 173.546 80.0978 173.644 79.7431 173.84C79.3978 174.036 79.1225 174.33 78.9171 174.722C78.7118 175.105 78.6091 175.576 78.6091 176.136C78.6091 176.967 78.8191 177.611 79.2391 178.068C79.6685 178.516 80.2051 178.74 80.8491 178.74ZM90.3229 172.16C90.9295 172.16 91.4709 172.286 91.9469 172.538C92.4322 172.79 92.8102 173.163 93.0809 173.658C93.3515 174.153 93.4869 174.75 93.4869 175.45V180H91.9049V175.688C91.9049 174.997 91.7322 174.47 91.3869 174.106C91.0415 173.733 90.5702 173.546 89.9729 173.546C89.3755 173.546 88.8995 173.733 88.5449 174.106C88.1995 174.47 88.0269 174.997 88.0269 175.688V180H86.4309V172.286H88.0269V173.168C88.2882 172.851 88.6195 172.603 89.0209 172.426C89.4315 172.249 89.8655 172.16 90.3229 172.16ZM95.7747 170.27H97.5107L96.0407 173.602H94.9207L95.7747 170.27ZM100.775 173.588V177.858C100.775 178.147 100.841 178.357 100.971 178.488C101.111 178.609 101.345 178.67 101.671 178.67H102.651V180H101.391C100.673 180 100.122 179.832 99.7393 179.496C99.3566 179.16 99.1653 178.614 99.1653 177.858V173.588H98.2553V172.286H99.1653V170.368H100.775V172.286H102.651V173.588H100.775ZM117.097 172.16C117.704 172.16 118.245 172.286 118.721 172.538C119.206 172.79 119.584 173.163 119.855 173.658C120.135 174.153 120.275 174.75 120.275 175.45V180H118.693V175.688C118.693 174.997 118.52 174.47 118.175 174.106C117.83 173.733 117.358 173.546 116.761 173.546C116.164 173.546 115.688 173.733 115.333 174.106C114.988 174.47 114.815 174.997 114.815 175.688V180H113.233V175.688C113.233 174.997 113.06 174.47 112.715 174.106C112.37 173.733 111.898 173.546 111.301 173.546C110.704 173.546 110.228 173.733 109.873 174.106C109.528 174.47 109.355 174.997 109.355 175.688V180H107.759V172.286H109.355V173.168C109.616 172.851 109.948 172.603 110.349 172.426C110.75 172.249 111.18 172.16 111.637 172.16C112.253 172.16 112.804 172.291 113.289 172.552C113.774 172.813 114.148 173.191 114.409 173.686C114.642 173.219 115.006 172.851 115.501 172.58C115.996 172.3 116.528 172.16 117.097 172.16ZM123.118 171.264C122.829 171.264 122.586 171.166 122.39 170.97C122.194 170.774 122.096 170.531 122.096 170.242C122.096 169.953 122.194 169.71 122.39 169.514C122.586 169.318 122.829 169.22 123.118 169.22C123.398 169.22 123.636 169.318 123.832 169.514C124.028 169.71 124.126 169.953 124.126 170.242C124.126 170.531 124.028 170.774 123.832 170.97C123.636 171.166 123.398 171.264 123.118 171.264ZM123.902 172.286V180H122.306V172.286H123.902ZM128.797 180.126C128.191 180.126 127.645 180.019 127.159 179.804C126.683 179.58 126.305 179.281 126.025 178.908C125.745 178.525 125.596 178.101 125.577 177.634H127.229C127.257 177.961 127.411 178.236 127.691 178.46C127.981 178.675 128.34 178.782 128.769 178.782C129.217 178.782 129.563 178.698 129.805 178.53C130.057 178.353 130.183 178.129 130.183 177.858C130.183 177.569 130.043 177.354 129.763 177.214C129.493 177.074 129.059 176.92 128.461 176.752C127.883 176.593 127.411 176.439 127.047 176.29C126.683 176.141 126.366 175.912 126.095 175.604C125.834 175.296 125.703 174.89 125.703 174.386C125.703 173.975 125.825 173.602 126.067 173.266C126.31 172.921 126.655 172.65 127.103 172.454C127.561 172.258 128.083 172.16 128.671 172.16C129.549 172.16 130.253 172.384 130.785 172.832C131.327 173.271 131.616 173.873 131.653 174.638H130.057C130.029 174.293 129.889 174.017 129.637 173.812C129.385 173.607 129.045 173.504 128.615 173.504C128.195 173.504 127.873 173.583 127.649 173.742C127.425 173.901 127.313 174.111 127.313 174.372C127.313 174.577 127.388 174.75 127.537 174.89C127.687 175.03 127.869 175.142 128.083 175.226C128.298 175.301 128.615 175.399 129.035 175.52C129.595 175.669 130.053 175.823 130.407 175.982C130.771 176.131 131.084 176.355 131.345 176.654C131.607 176.953 131.742 177.349 131.751 177.844C131.751 178.283 131.63 178.675 131.387 179.02C131.145 179.365 130.799 179.636 130.351 179.832C129.913 180.028 129.395 180.126 128.797 180.126ZM140.462 172.286V180H138.866V179.09C138.614 179.407 138.282 179.659 137.872 179.846C137.47 180.023 137.041 180.112 136.584 180.112C135.977 180.112 135.431 179.986 134.946 179.734C134.47 179.482 134.092 179.109 133.812 178.614C133.541 178.119 133.406 177.522 133.406 176.822V172.286H134.988V176.584C134.988 177.275 135.16 177.807 135.506 178.18C135.851 178.544 136.322 178.726 136.92 178.726C137.517 178.726 137.988 178.544 138.334 178.18C138.688 177.807 138.866 177.275 138.866 176.584V172.286H140.462ZM145.368 180.126C144.761 180.126 144.215 180.019 143.73 179.804C143.254 179.58 142.876 179.281 142.596 178.908C142.316 178.525 142.166 178.101 142.148 177.634H143.8C143.828 177.961 143.982 178.236 144.262 178.46C144.551 178.675 144.91 178.782 145.34 178.782C145.788 178.782 146.133 178.698 146.376 178.53C146.628 178.353 146.754 178.129 146.754 177.858C146.754 177.569 146.614 177.354 146.334 177.214C146.063 177.074 145.629 176.92 145.032 176.752C144.453 176.593 143.982 176.439 143.618 176.29C143.254 176.141 142.936 175.912 142.666 175.604C142.404 175.296 142.274 174.89 142.274 174.386C142.274 173.975 142.395 173.602 142.638 173.266C142.88 172.921 143.226 172.65 143.674 172.454C144.131 172.258 144.654 172.16 145.242 172.16C146.119 172.16 146.824 172.384 147.356 172.832C147.897 173.271 148.186 173.873 148.224 174.638H146.628C146.6 174.293 146.46 174.017 146.208 173.812C145.956 173.607 145.615 173.504 145.186 173.504C144.766 173.504 144.444 173.583 144.22 173.742C143.996 173.901 143.884 174.111 143.884 174.372C143.884 174.577 143.958 174.75 144.108 174.89C144.257 175.03 144.439 175.142 144.654 175.226C144.868 175.301 145.186 175.399 145.606 175.52C146.166 175.669 146.623 175.823 146.978 175.982C147.342 176.131 147.654 176.355 147.916 176.654C148.177 176.953 148.312 177.349 148.322 177.844C148.322 178.283 148.2 178.675 147.958 179.02C147.715 179.365 147.37 179.636 146.922 179.832C146.483 180.028 145.965 180.126 145.368 180.126ZM157.116 175.954C157.116 176.243 157.097 176.505 157.06 176.738H151.166C151.213 177.354 151.441 177.849 151.852 178.222C152.263 178.595 152.767 178.782 153.364 178.782C154.223 178.782 154.829 178.423 155.184 177.704H156.906C156.673 178.413 156.248 178.997 155.632 179.454C155.025 179.902 154.269 180.126 153.364 180.126C152.627 180.126 151.964 179.963 151.376 179.636C150.797 179.3 150.34 178.833 150.004 178.236C149.677 177.629 149.514 176.929 149.514 176.136C149.514 175.343 149.673 174.647 149.99 174.05C150.317 173.443 150.769 172.977 151.348 172.65C151.936 172.323 152.608 172.16 153.364 172.16C154.092 172.16 154.741 172.319 155.31 172.636C155.879 172.953 156.323 173.401 156.64 173.98C156.957 174.549 157.116 175.207 157.116 175.954ZM155.45 175.45C155.441 174.862 155.231 174.391 154.82 174.036C154.409 173.681 153.901 173.504 153.294 173.504C152.743 173.504 152.272 173.681 151.88 174.036C151.488 174.381 151.255 174.853 151.18 175.45H155.45ZM42.994 193.286L38.262 204.626H36.61L38.178 200.874L35.14 193.286H36.918L39.088 199.166L41.342 193.286H42.994ZM47.5444 201.126C46.8164 201.126 46.1584 200.963 45.5704 200.636C44.9824 200.3 44.5204 199.833 44.1844 199.236C43.8484 198.629 43.6804 197.929 43.6804 197.136C43.6804 196.352 43.8531 195.657 44.1984 195.05C44.5438 194.443 45.0151 193.977 45.6124 193.65C46.2098 193.323 46.8771 193.16 47.6144 193.16C48.3518 193.16 49.0191 193.323 49.6164 193.65C50.2138 193.977 50.6851 194.443 51.0304 195.05C51.3758 195.657 51.5484 196.352 51.5484 197.136C51.5484 197.92 51.3711 198.615 51.0164 199.222C50.6618 199.829 50.1764 200.3 49.5604 200.636C48.9538 200.963 48.2818 201.126 47.5444 201.126ZM47.5444 199.74C47.9551 199.74 48.3378 199.642 48.6924 199.446C49.0564 199.25 49.3504 198.956 49.5744 198.564C49.7984 198.172 49.9104 197.696 49.9104 197.136C49.9104 196.576 49.8031 196.105 49.5884 195.722C49.3738 195.33 49.0891 195.036 48.7344 194.84C48.3798 194.644 47.9971 194.546 47.5864 194.546C47.1758 194.546 46.7931 194.644 46.4384 194.84C46.0931 195.036 45.8178 195.33 45.6124 195.722C45.4071 196.105 45.3044 196.576 45.3044 197.136C45.3044 197.967 45.5144 198.611 45.9344 199.068C46.3638 199.516 46.9004 199.74 47.5444 199.74ZM60.1122 193.286V201H58.5162V200.09C58.2642 200.407 57.9328 200.659 57.5222 200.846C57.1208 201.023 56.6915 201.112 56.2342 201.112C55.6275 201.112 55.0815 200.986 54.5962 200.734C54.1202 200.482 53.7422 200.109 53.4622 199.614C53.1915 199.119 53.0562 198.522 53.0562 197.822V193.286H54.6382V197.584C54.6382 198.275 54.8108 198.807 55.1562 199.18C55.5015 199.544 55.9728 199.726 56.5702 199.726C57.1675 199.726 57.6388 199.544 57.9842 199.18C58.3388 198.807 58.5162 198.275 58.5162 197.584V193.286H60.1122ZM63.814 194.406C64.0473 194.014 64.3553 193.711 64.738 193.496C65.13 193.272 65.592 193.16 66.124 193.16V194.812H65.718C65.0926 194.812 64.6166 194.971 64.29 195.288C63.9726 195.605 63.814 196.156 63.814 196.94V201H62.218V193.286H63.814V194.406ZM70.6957 197.108C70.6957 196.333 70.8544 195.647 71.1717 195.05C71.4984 194.453 71.9371 193.991 72.4877 193.664C73.0477 193.328 73.6684 193.16 74.3497 193.16C74.8537 193.16 75.3484 193.272 75.8337 193.496C76.3284 193.711 76.7204 194 77.0097 194.364V190.64H78.6197V201H77.0097V199.838C76.7484 200.211 76.3844 200.519 75.9177 200.762C75.4604 201.005 74.9331 201.126 74.3357 201.126C73.6637 201.126 73.0477 200.958 72.4877 200.622C71.9371 200.277 71.4984 199.801 71.1717 199.194C70.8544 198.578 70.6957 197.883 70.6957 197.108ZM77.0097 197.136C77.0097 196.604 76.8977 196.142 76.6737 195.75C76.4591 195.358 76.1744 195.059 75.8197 194.854C75.4651 194.649 75.0824 194.546 74.6717 194.546C74.2611 194.546 73.8784 194.649 73.5237 194.854C73.1691 195.05 72.8797 195.344 72.6557 195.736C72.4411 196.119 72.3337 196.576 72.3337 197.108C72.3337 197.64 72.4411 198.107 72.6557 198.508C72.8797 198.909 73.1691 199.217 73.5237 199.432C73.8877 199.637 74.2704 199.74 74.6717 199.74C75.0824 199.74 75.4651 199.637 75.8197 199.432C76.1744 199.227 76.4591 198.928 76.6737 198.536C76.8977 198.135 77.0097 197.668 77.0097 197.136ZM80.184 197.108C80.184 196.333 80.3427 195.647 80.66 195.05C80.9867 194.453 81.4253 193.991 81.976 193.664C82.536 193.328 83.152 193.16 83.824 193.16C84.4307 193.16 84.958 193.281 85.406 193.524C85.8633 193.757 86.2273 194.051 86.498 194.406V193.286H88.108V201H86.498V199.852C86.2273 200.216 85.8587 200.519 85.392 200.762C84.9253 201.005 84.3933 201.126 83.796 201.126C83.1333 201.126 82.5267 200.958 81.976 200.622C81.4253 200.277 80.9867 199.801 80.66 199.194C80.3427 198.578 80.184 197.883 80.184 197.108ZM86.498 197.136C86.498 196.604 86.386 196.142 86.162 195.75C85.9473 195.358 85.6627 195.059 85.308 194.854C84.9533 194.649 84.5707 194.546 84.16 194.546C83.7493 194.546 83.3667 194.649 83.012 194.854C82.6573 195.05 82.368 195.344 82.144 195.736C81.9293 196.119 81.822 196.576 81.822 197.108C81.822 197.64 81.9293 198.107 82.144 198.508C82.368 198.909 82.6573 199.217 83.012 199.432C83.376 199.637 83.7587 199.74 84.16 199.74C84.5707 199.74 84.9533 199.637 85.308 199.432C85.6627 199.227 85.9473 198.928 86.162 198.536C86.386 198.135 86.498 197.668 86.498 197.136ZM92.0663 194.588V198.858C92.0663 199.147 92.1316 199.357 92.2623 199.488C92.4023 199.609 92.6356 199.67 92.9623 199.67H93.9423V201H92.6823C91.9636 201 91.413 200.832 91.0303 200.496C90.6476 200.16 90.4563 199.614 90.4563 198.858V194.588H89.5463V193.286H90.4563V191.368H92.0663V193.286H93.9423V194.588H92.0663ZM94.8813 197.108C94.8813 196.333 95.0399 195.647 95.3573 195.05C95.6839 194.453 96.1226 193.991 96.6733 193.664C97.2333 193.328 97.8493 193.16 98.5213 193.16C99.1279 193.16 99.6553 193.281 100.103 193.524C100.561 193.757 100.925 194.051 101.195 194.406V193.286H102.805V201H101.195V199.852C100.925 200.216 100.556 200.519 100.089 200.762C99.6226 201.005 99.0906 201.126 98.4933 201.126C97.8306 201.126 97.2239 200.958 96.6733 200.622C96.1226 200.277 95.6839 199.801 95.3573 199.194C95.0399 198.578 94.8813 197.883 94.8813 197.108ZM101.195 197.136C101.195 196.604 101.083 196.142 100.859 195.75C100.645 195.358 100.36 195.059 100.005 194.854C99.6506 194.649 99.2679 194.546 98.8573 194.546C98.4466 194.546 98.0639 194.649 97.7093 194.854C97.3546 195.05 97.0653 195.344 96.8413 195.736C96.6266 196.119 96.5193 196.576 96.5193 197.108C96.5193 197.64 96.6266 198.107 96.8413 198.508C97.0653 198.909 97.3546 199.217 97.7093 199.432C98.0733 199.637 98.4559 199.74 98.8573 199.74C99.2679 199.74 99.6506 199.637 100.005 199.432C100.36 199.227 100.645 198.928 100.859 198.536C101.083 198.135 101.195 197.668 101.195 197.136ZM106.904 191.27L106.722 198.06H105.392L105.21 191.27H106.904ZM106.106 201.098C105.816 201.098 105.574 201 105.378 200.804C105.182 200.608 105.084 200.365 105.084 200.076C105.084 199.787 105.182 199.544 105.378 199.348C105.574 199.152 105.816 199.054 106.106 199.054C106.386 199.054 106.624 199.152 106.82 199.348C107.016 199.544 107.114 199.787 107.114 200.076C107.114 200.365 107.016 200.608 106.82 200.804C106.624 201 106.386 201.098 106.106 201.098ZM120.246 191.27L117.026 197.472V201H115.43V197.472L112.196 191.27H113.974L116.228 196.044L118.482 191.27H120.246ZM124.859 201.126C124.131 201.126 123.473 200.963 122.885 200.636C122.297 200.3 121.835 199.833 121.499 199.236C121.163 198.629 120.995 197.929 120.995 197.136C120.995 196.352 121.168 195.657 121.513 195.05C121.858 194.443 122.33 193.977 122.927 193.65C123.524 193.323 124.192 193.16 124.929 193.16C125.666 193.16 126.334 193.323 126.931 193.65C127.528 193.977 128 194.443 128.345 195.05C128.69 195.657 128.863 196.352 128.863 197.136C128.863 197.92 128.686 198.615 128.331 199.222C127.976 199.829 127.491 200.3 126.875 200.636C126.268 200.963 125.596 201.126 124.859 201.126ZM124.859 199.74C125.27 199.74 125.652 199.642 126.007 199.446C126.371 199.25 126.665 198.956 126.889 198.564C127.113 198.172 127.225 197.696 127.225 197.136C127.225 196.576 127.118 196.105 126.903 195.722C126.688 195.33 126.404 195.036 126.049 194.84C125.694 194.644 125.312 194.546 124.901 194.546C124.49 194.546 124.108 194.644 123.753 194.84C123.408 195.036 123.132 195.33 122.927 195.722C122.722 196.105 122.619 196.576 122.619 197.136C122.619 197.967 122.829 198.611 123.249 199.068C123.678 199.516 124.215 199.74 124.859 199.74ZM137.427 193.286V201H135.831V200.09C135.579 200.407 135.247 200.659 134.837 200.846C134.435 201.023 134.006 201.112 133.549 201.112C132.942 201.112 132.396 200.986 131.911 200.734C131.435 200.482 131.057 200.109 130.777 199.614C130.506 199.119 130.371 198.522 130.371 197.822V193.286H131.953V197.584C131.953 198.275 132.125 198.807 132.471 199.18C132.816 199.544 133.287 199.726 133.885 199.726C134.482 199.726 134.953 199.544 135.299 199.18C135.653 198.807 135.831 198.275 135.831 197.584V193.286H137.427ZM141.128 194.406C141.362 194.014 141.67 193.711 142.052 193.496C142.444 193.272 142.906 193.16 143.438 193.16V194.812H143.032C142.407 194.812 141.931 194.971 141.604 195.288C141.287 195.605 141.128 196.156 141.128 196.94V201H139.532V193.286H141.128V194.406ZM39.256 222.098C38.6027 222.098 38.0147 221.986 37.492 221.762C36.9693 221.529 36.5587 221.202 36.26 220.782C35.9613 220.362 35.812 219.872 35.812 219.312H37.52C37.5573 219.732 37.7207 220.077 38.01 220.348C38.3087 220.619 38.724 220.754 39.256 220.754C39.8067 220.754 40.236 220.623 40.544 220.362C40.852 220.091 41.006 219.746 41.006 219.326C41.006 218.999 40.908 218.733 40.712 218.528C40.5253 218.323 40.2873 218.164 39.998 218.052C39.718 217.94 39.326 217.819 38.822 217.688C38.1873 217.52 37.6693 217.352 37.268 217.184C36.876 217.007 36.54 216.736 36.26 216.372C35.98 216.008 35.84 215.523 35.84 214.916C35.84 214.356 35.98 213.866 36.26 213.446C36.54 213.026 36.932 212.704 37.436 212.48C37.94 212.256 38.5233 212.144 39.186 212.144C40.1287 212.144 40.8987 212.382 41.496 212.858C42.1027 213.325 42.4387 213.969 42.504 214.79H40.74C40.712 214.435 40.544 214.132 40.236 213.88C39.928 213.628 39.522 213.502 39.018 213.502C38.5607 213.502 38.1873 213.619 37.898 213.852C37.6087 214.085 37.464 214.421 37.464 214.86C37.464 215.159 37.5527 215.406 37.73 215.602C37.9167 215.789 38.15 215.938 38.43 216.05C38.71 216.162 39.0927 216.283 39.578 216.414C40.222 216.591 40.7447 216.769 41.146 216.946C41.5567 217.123 41.902 217.399 42.182 217.772C42.4713 218.136 42.616 218.626 42.616 219.242C42.616 219.737 42.4807 220.203 42.21 220.642C41.9487 221.081 41.5613 221.435 41.048 221.706C40.544 221.967 39.9467 222.098 39.256 222.098ZM43.9672 218.108C43.9672 217.333 44.1259 216.647 44.4432 216.05C44.7699 215.453 45.2086 214.991 45.7592 214.664C46.3192 214.328 46.9352 214.16 47.6072 214.16C48.2139 214.16 48.7412 214.281 49.1892 214.524C49.6466 214.757 50.0106 215.051 50.2812 215.406V214.286H51.8912V222H50.2812V220.852C50.0106 221.216 49.6419 221.519 49.1752 221.762C48.7086 222.005 48.1766 222.126 47.5792 222.126C46.9166 222.126 46.3099 221.958 45.7592 221.622C45.2086 221.277 44.7699 220.801 44.4432 220.194C44.1259 219.578 43.9672 218.883 43.9672 218.108ZM50.2812 218.136C50.2812 217.604 50.1692 217.142 49.9452 216.75C49.7306 216.358 49.4459 216.059 49.0912 215.854C48.7366 215.649 48.3539 215.546 47.9432 215.546C47.5326 215.546 47.1499 215.649 46.7952 215.854C46.4406 216.05 46.1512 216.344 45.9272 216.736C45.7126 217.119 45.6052 217.576 45.6052 218.108C45.6052 218.64 45.7126 219.107 45.9272 219.508C46.1512 219.909 46.4406 220.217 46.7952 220.432C47.1592 220.637 47.5419 220.74 47.9432 220.74C48.3539 220.74 48.7366 220.637 49.0912 220.432C49.4459 220.227 49.7306 219.928 49.9452 219.536C50.1692 219.135 50.2812 218.668 50.2812 218.136ZM56.9695 220.572L59.1535 214.286H60.8475L57.9075 222H56.0035L53.0775 214.286H54.7855L56.9695 220.572ZM62.8659 213.264C62.5766 213.264 62.3339 213.166 62.1379 212.97C61.9419 212.774 61.8439 212.531 61.8439 212.242C61.8439 211.953 61.9419 211.71 62.1379 211.514C62.3339 211.318 62.5766 211.22 62.8659 211.22C63.1459 211.22 63.3839 211.318 63.5799 211.514C63.7759 211.71 63.8739 211.953 63.8739 212.242C63.8739 212.531 63.7759 212.774 63.5799 212.97C63.3839 213.166 63.1459 213.264 62.8659 213.264ZM63.6499 214.286V222H62.0539V214.286H63.6499ZM69.6373 214.16C70.244 214.16 70.7853 214.286 71.2613 214.538C71.7466 214.79 72.1246 215.163 72.3953 215.658C72.666 216.153 72.8013 216.75 72.8013 217.45V222H71.2193V217.688C71.2193 216.997 71.0466 216.47 70.7013 216.106C70.356 215.733 69.8846 215.546 69.2873 215.546C68.69 215.546 68.214 215.733 67.8593 216.106C67.514 216.47 67.3413 216.997 67.3413 217.688V222H65.7453V214.286H67.3413V215.168C67.6026 214.851 67.934 214.603 68.3353 214.426C68.746 214.249 69.18 214.16 69.6373 214.16ZM77.9451 214.16C78.5424 214.16 79.0698 214.281 79.5271 214.524C79.9938 214.757 80.3578 215.051 80.6191 215.406V214.286H82.2291V222.126C82.2291 222.835 82.0798 223.465 81.7811 224.016C81.4824 224.576 81.0484 225.015 80.4791 225.332C79.9191 225.649 79.2471 225.808 78.4631 225.808C77.4178 225.808 76.5498 225.561 75.8591 225.066C75.1684 224.581 74.7764 223.918 74.6831 223.078H76.2651C76.3864 223.479 76.6431 223.801 77.0351 224.044C77.4364 224.296 77.9124 224.422 78.4631 224.422C79.1071 224.422 79.6251 224.226 80.0171 223.834C80.4184 223.442 80.6191 222.873 80.6191 222.126V220.838C80.3484 221.202 79.9798 221.51 79.5131 221.762C79.0558 222.005 78.5331 222.126 77.9451 222.126C77.2731 222.126 76.6571 221.958 76.0971 221.622C75.5464 221.277 75.1078 220.801 74.7811 220.194C74.4638 219.578 74.3051 218.883 74.3051 218.108C74.3051 217.333 74.4638 216.647 74.7811 216.05C75.1078 215.453 75.5464 214.991 76.0971 214.664C76.6571 214.328 77.2731 214.16 77.9451 214.16ZM80.6191 218.136C80.6191 217.604 80.5071 217.142 80.2831 216.75C80.0684 216.358 79.7838 216.059 79.4291 215.854C79.0744 215.649 78.6918 215.546 78.2811 215.546C77.8704 215.546 77.4878 215.649 77.1331 215.854C76.7784 216.05 76.4891 216.344 76.2651 216.736C76.0504 217.119 75.9431 217.576 75.9431 218.108C75.9431 218.64 76.0504 219.107 76.2651 219.508C76.4891 219.909 76.7784 220.217 77.1331 220.432C77.4971 220.637 77.8798 220.74 78.2811 220.74C78.6918 220.74 79.0744 220.637 79.4291 220.432C79.7838 220.227 80.0684 219.928 80.2831 219.536C80.5071 219.135 80.6191 218.668 80.6191 218.136ZM91.1681 222.098C90.5148 222.098 89.9268 221.986 89.4041 221.762C88.8814 221.529 88.4708 221.202 88.1721 220.782C87.8734 220.362 87.7241 219.872 87.7241 219.312H89.4321C89.4694 219.732 89.6328 220.077 89.9221 220.348C90.2208 220.619 90.6361 220.754 91.1681 220.754C91.7188 220.754 92.1481 220.623 92.4561 220.362C92.7641 220.091 92.9181 219.746 92.9181 219.326C92.9181 218.999 92.8201 218.733 92.6241 218.528C92.4374 218.323 92.1994 218.164 91.9101 218.052C91.6301 217.94 91.2381 217.819 90.7341 217.688C90.0994 217.52 89.5814 217.352 89.1801 217.184C88.7881 217.007 88.4521 216.736 88.1721 216.372C87.8921 216.008 87.7521 215.523 87.7521 214.916C87.7521 214.356 87.8921 213.866 88.1721 213.446C88.4521 213.026 88.8441 212.704 89.3481 212.48C89.8521 212.256 90.4354 212.144 91.0981 212.144C92.0408 212.144 92.8108 212.382 93.4081 212.858C94.0148 213.325 94.3508 213.969 94.4161 214.79H92.6521C92.6241 214.435 92.4561 214.132 92.1481 213.88C91.8401 213.628 91.4341 213.502 90.9301 213.502C90.4728 213.502 90.0994 213.619 89.8101 213.852C89.5208 214.085 89.3761 214.421 89.3761 214.86C89.3761 215.159 89.4648 215.406 89.6421 215.602C89.8288 215.789 90.0621 215.938 90.3421 216.05C90.6221 216.162 91.0048 216.283 91.4901 216.414C92.1341 216.591 92.6568 216.769 93.0581 216.946C93.4688 217.123 93.8141 217.399 94.0941 217.772C94.3834 218.136 94.5281 218.626 94.5281 219.242C94.5281 219.737 94.3928 220.203 94.1221 220.642C93.8608 221.081 93.4734 221.435 92.9601 221.706C92.4561 221.967 91.8588 222.098 91.1681 222.098ZM103.481 217.954C103.481 218.243 103.463 218.505 103.425 218.738H97.5313C97.578 219.354 97.8067 219.849 98.2173 220.222C98.628 220.595 99.132 220.782 99.7293 220.782C100.588 220.782 101.195 220.423 101.549 219.704H103.271C103.038 220.413 102.613 220.997 101.997 221.454C101.391 221.902 100.635 222.126 99.7293 222.126C98.992 222.126 98.3293 221.963 97.7413 221.636C97.1627 221.3 96.7053 220.833 96.3693 220.236C96.0427 219.629 95.8793 218.929 95.8793 218.136C95.8793 217.343 96.038 216.647 96.3553 216.05C96.682 215.443 97.1347 214.977 97.7133 214.65C98.3013 214.323 98.9733 214.16 99.7293 214.16C100.457 214.16 101.106 214.319 101.675 214.636C102.245 214.953 102.688 215.401 103.005 215.98C103.323 216.549 103.481 217.207 103.481 217.954ZM101.815 217.45C101.806 216.862 101.596 216.391 101.185 216.036C100.775 215.681 100.266 215.504 99.6593 215.504C99.1087 215.504 98.6373 215.681 98.2453 216.036C97.8533 216.381 97.62 216.853 97.5453 217.45H101.815ZM104.52 218.136C104.52 217.343 104.679 216.647 104.996 216.05C105.323 215.443 105.771 214.977 106.34 214.65C106.909 214.323 107.563 214.16 108.3 214.16C109.233 214.16 110.003 214.384 110.61 214.832C111.226 215.271 111.641 215.901 111.856 216.722H110.134C109.994 216.339 109.77 216.041 109.462 215.826C109.154 215.611 108.767 215.504 108.3 215.504C107.647 215.504 107.124 215.737 106.732 216.204C106.349 216.661 106.158 217.305 106.158 218.136C106.158 218.967 106.349 219.615 106.732 220.082C107.124 220.549 107.647 220.782 108.3 220.782C109.224 220.782 109.835 220.376 110.134 219.564H111.856C111.632 220.348 111.212 220.973 110.596 221.44C109.98 221.897 109.215 222.126 108.3 222.126C107.563 222.126 106.909 221.963 106.34 221.636C105.771 221.3 105.323 220.833 104.996 220.236C104.679 219.629 104.52 218.929 104.52 218.136ZM115.042 215.406C115.276 215.014 115.584 214.711 115.966 214.496C116.358 214.272 116.82 214.16 117.352 214.16V215.812H116.946C116.321 215.812 115.845 215.971 115.518 216.288C115.201 216.605 115.042 217.156 115.042 217.94V222H113.446V214.286H115.042V215.406ZM125.89 217.954C125.89 218.243 125.871 218.505 125.834 218.738H119.94C119.986 219.354 120.215 219.849 120.626 220.222C121.036 220.595 121.54 220.782 122.138 220.782C122.996 220.782 123.603 220.423 123.958 219.704H125.68C125.446 220.413 125.022 220.997 124.406 221.454C123.799 221.902 123.043 222.126 122.138 222.126C121.4 222.126 120.738 221.963 120.15 221.636C119.571 221.3 119.114 220.833 118.778 220.236C118.451 219.629 118.288 218.929 118.288 218.136C118.288 217.343 118.446 216.647 118.764 216.05C119.09 215.443 119.543 214.977 120.122 214.65C120.71 214.323 121.382 214.16 122.138 214.16C122.866 214.16 123.514 214.319 124.084 214.636C124.653 214.953 125.096 215.401 125.414 215.98C125.731 216.549 125.89 217.207 125.89 217.954ZM124.224 217.45C124.214 216.862 124.004 216.391 123.594 216.036C123.183 215.681 122.674 215.504 122.068 215.504C121.517 215.504 121.046 215.681 120.654 216.036C120.262 216.381 120.028 216.853 119.954 217.45H124.224ZM129.322 215.588V219.858C129.322 220.147 129.387 220.357 129.518 220.488C129.658 220.609 129.891 220.67 130.218 220.67H131.198V222H129.938C129.219 222 128.669 221.832 128.286 221.496C127.903 221.16 127.712 220.614 127.712 219.858V215.588H126.802V214.286H127.712V212.368H129.322V214.286H131.198V215.588H129.322ZM135.469 222.126C134.862 222.126 134.316 222.019 133.831 221.804C133.355 221.58 132.977 221.281 132.697 220.908C132.417 220.525 132.268 220.101 132.249 219.634H133.901C133.929 219.961 134.083 220.236 134.363 220.46C134.652 220.675 135.012 220.782 135.441 220.782C135.889 220.782 136.234 220.698 136.477 220.53C136.729 220.353 136.855 220.129 136.855 219.858C136.855 219.569 136.715 219.354 136.435 219.214C136.164 219.074 135.73 218.92 135.133 218.752C134.554 218.593 134.083 218.439 133.719 218.29C133.355 218.141 133.038 217.912 132.767 217.604C132.506 217.296 132.375 216.89 132.375 216.386C132.375 215.975 132.496 215.602 132.739 215.266C132.982 214.921 133.327 214.65 133.775 214.454C134.232 214.258 134.755 214.16 135.343 214.16C136.22 214.16 136.925 214.384 137.457 214.832C137.998 215.271 138.288 215.873 138.325 216.638H136.729C136.701 216.293 136.561 216.017 136.309 215.812C136.057 215.607 135.716 215.504 135.287 215.504C134.867 215.504 134.545 215.583 134.321 215.742C134.097 215.901 133.985 216.111 133.985 216.372C133.985 216.577 134.06 216.75 134.209 216.89C134.358 217.03 134.54 217.142 134.755 217.226C134.97 217.301 135.287 217.399 135.707 217.52C136.267 217.669 136.724 217.823 137.079 217.982C137.443 218.131 137.756 218.355 138.017 218.654C138.278 218.953 138.414 219.349 138.423 219.844C138.423 220.283 138.302 220.675 138.059 221.02C137.816 221.365 137.471 221.636 137.023 221.832C136.584 222.028 136.066 222.126 135.469 222.126ZM143.252 218.108C143.252 217.333 143.411 216.647 143.728 216.05C144.055 215.453 144.494 214.991 145.044 214.664C145.604 214.328 146.22 214.16 146.892 214.16C147.499 214.16 148.026 214.281 148.474 214.524C148.932 214.757 149.296 215.051 149.566 215.406V214.286H151.176V222H149.566V220.852C149.296 221.216 148.927 221.519 148.46 221.762C147.994 222.005 147.462 222.126 146.864 222.126C146.202 222.126 145.595 221.958 145.044 221.622C144.494 221.277 144.055 220.801 143.728 220.194C143.411 219.578 143.252 218.883 143.252 218.108ZM149.566 218.136C149.566 217.604 149.454 217.142 149.23 216.75C149.016 216.358 148.731 216.059 148.376 215.854C148.022 215.649 147.639 215.546 147.228 215.546C146.818 215.546 146.435 215.649 146.08 215.854C145.726 216.05 145.436 216.344 145.212 216.736C144.998 217.119 144.89 217.576 144.89 218.108C144.89 218.64 144.998 219.107 145.212 219.508C145.436 219.909 145.726 220.217 146.08 220.432C146.444 220.637 146.827 220.74 147.228 220.74C147.639 220.74 148.022 220.637 148.376 220.432C148.731 220.227 149.016 219.928 149.23 219.536C149.454 219.135 149.566 218.668 149.566 218.136ZM154.869 215.406C155.102 215.014 155.41 214.711 155.793 214.496C156.185 214.272 156.647 214.16 157.179 214.16V215.812H156.773C156.147 215.812 155.671 215.971 155.345 216.288C155.027 216.605 154.869 217.156 154.869 217.94V222H153.273V214.286H154.869V215.406ZM165.716 217.954C165.716 218.243 165.697 218.505 165.66 218.738H159.766C159.812 219.354 160.041 219.849 160.452 220.222C160.862 220.595 161.366 220.782 161.964 220.782C162.822 220.782 163.429 220.423 163.784 219.704H165.506C165.272 220.413 164.848 220.997 164.232 221.454C163.625 221.902 162.869 222.126 161.964 222.126C161.226 222.126 160.564 221.963 159.976 221.636C159.397 221.3 158.94 220.833 158.604 220.236C158.277 219.629 158.114 218.929 158.114 218.136C158.114 217.343 158.272 216.647 158.59 216.05C158.916 215.443 159.369 214.977 159.948 214.65C160.536 214.323 161.208 214.16 161.964 214.16C162.692 214.16 163.34 214.319 163.91 214.636C164.479 214.953 164.922 215.401 165.24 215.98C165.557 216.549 165.716 217.207 165.716 217.954ZM164.05 217.45C164.04 216.862 163.83 216.391 163.42 216.036C163.009 215.681 162.5 215.504 161.894 215.504C161.343 215.504 160.872 215.681 160.48 216.036C160.088 216.381 159.854 216.853 159.78 217.45H164.05ZM38.85 243.126C38.2433 243.126 37.6973 243.019 37.212 242.804C36.736 242.58 36.358 242.281 36.078 241.908C35.798 241.525 35.6487 241.101 35.63 240.634H37.282C37.31 240.961 37.464 241.236 37.744 241.46C38.0333 241.675 38.3927 241.782 38.822 241.782C39.27 241.782 39.6153 241.698 39.858 241.53C40.11 241.353 40.236 241.129 40.236 240.858C40.236 240.569 40.096 240.354 39.816 240.214C39.5453 240.074 39.1113 239.92 38.514 239.752C37.9353 239.593 37.464 239.439 37.1 239.29C36.736 239.141 36.4187 238.912 36.148 238.604C35.8867 238.296 35.756 237.89 35.756 237.386C35.756 236.975 35.8773 236.602 36.12 236.266C36.3627 235.921 36.708 235.65 37.156 235.454C37.6133 235.258 38.136 235.16 38.724 235.16C39.6013 235.16 40.306 235.384 40.838 235.832C41.3793 236.271 41.6687 236.873 41.706 237.638H40.11C40.082 237.293 39.942 237.017 39.69 236.812C39.438 236.607 39.0973 236.504 38.668 236.504C38.248 236.504 37.926 236.583 37.702 236.742C37.478 236.901 37.366 237.111 37.366 237.372C37.366 237.577 37.4407 237.75 37.59 237.89C37.7393 238.03 37.9213 238.142 38.136 238.226C38.3507 238.301 38.668 238.399 39.088 238.52C39.648 238.669 40.1053 238.823 40.46 238.982C40.824 239.131 41.1367 239.355 41.398 239.654C41.6593 239.953 41.7947 240.349 41.804 240.844C41.804 241.283 41.6827 241.675 41.44 242.02C41.1973 242.365 40.852 242.636 40.404 242.832C39.9653 243.028 39.4473 243.126 38.85 243.126ZM42.9965 239.108C42.9965 238.333 43.1552 237.647 43.4725 237.05C43.7992 236.453 44.2378 235.991 44.7885 235.664C45.3485 235.328 45.9645 235.16 46.6365 235.16C47.2432 235.16 47.7705 235.281 48.2185 235.524C48.6758 235.757 49.0398 236.051 49.3105 236.406V235.286H50.9205V243H49.3105V241.852C49.0398 242.216 48.6712 242.519 48.2045 242.762C47.7378 243.005 47.2058 243.126 46.6085 243.126C45.9458 243.126 45.3392 242.958 44.7885 242.622C44.2378 242.277 43.7992 241.801 43.4725 241.194C43.1552 240.578 42.9965 239.883 42.9965 239.108ZM49.3105 239.136C49.3105 238.604 49.1985 238.142 48.9745 237.75C48.7598 237.358 48.4752 237.059 48.1205 236.854C47.7658 236.649 47.3832 236.546 46.9725 236.546C46.5618 236.546 46.1792 236.649 45.8245 236.854C45.4698 237.05 45.1805 237.344 44.9565 237.736C44.7418 238.119 44.6345 238.576 44.6345 239.108C44.6345 239.64 44.7418 240.107 44.9565 240.508C45.1805 240.909 45.4698 241.217 45.8245 241.432C46.1885 241.637 46.5712 241.74 46.9725 241.74C47.3832 241.74 47.7658 241.637 48.1205 241.432C48.4752 241.227 48.7598 240.928 48.9745 240.536C49.1985 240.135 49.3105 239.668 49.3105 239.136ZM56.2508 236.588H54.8228V243H53.2128V236.588H52.3028V235.286H53.2128V234.74C53.2128 233.853 53.4461 233.209 53.9128 232.808C54.3888 232.397 55.1308 232.192 56.1388 232.192V233.522C55.6535 233.522 55.3128 233.615 55.1168 233.802C54.9208 233.979 54.8228 234.292 54.8228 234.74V235.286H56.2508V236.588ZM64.7352 238.954C64.7352 239.243 64.7166 239.505 64.6792 239.738H58.7852C58.8319 240.354 59.0606 240.849 59.4712 241.222C59.8819 241.595 60.3859 241.782 60.9832 241.782C61.8419 241.782 62.4486 241.423 62.8032 240.704H64.5252C64.2919 241.413 63.8672 241.997 63.2512 242.454C62.6446 242.902 61.8886 243.126 60.9832 243.126C60.2459 243.126 59.5832 242.963 58.9952 242.636C58.4166 242.3 57.9592 241.833 57.6232 241.236C57.2966 240.629 57.1332 239.929 57.1332 239.136C57.1332 238.343 57.2919 237.647 57.6092 237.05C57.9359 236.443 58.3886 235.977 58.9672 235.65C59.5552 235.323 60.2272 235.16 60.9832 235.16C61.7112 235.16 62.3599 235.319 62.9292 235.636C63.4986 235.953 63.9419 236.401 64.2592 236.98C64.5766 237.549 64.7352 238.207 64.7352 238.954ZM63.0692 238.45C63.0599 237.862 62.8499 237.391 62.4392 237.036C62.0286 236.681 61.5199 236.504 60.9132 236.504C60.3626 236.504 59.8912 236.681 59.4992 237.036C59.1072 237.381 58.8739 237.853 58.7992 238.45H63.0692ZM80.3026 235.286L77.9086 243H76.2286L74.6746 237.302L73.1206 243H71.4406L69.0326 235.286H70.6566L72.2666 241.488L73.9046 235.286H75.5706L77.1386 241.46L78.7346 235.286H80.3026ZM82.3073 234.264C82.018 234.264 81.7753 234.166 81.5793 233.97C81.3833 233.774 81.2853 233.531 81.2853 233.242C81.2853 232.953 81.3833 232.71 81.5793 232.514C81.7753 232.318 82.018 232.22 82.3073 232.22C82.5873 232.22 82.8253 232.318 83.0213 232.514C83.2173 232.71 83.3153 232.953 83.3153 233.242C83.3153 233.531 83.2173 233.774 83.0213 233.97C82.8253 234.166 82.5873 234.264 82.3073 234.264ZM83.0913 235.286V243H81.4953V235.286H83.0913ZM87.0487 236.588V240.858C87.0487 241.147 87.1141 241.357 87.2447 241.488C87.3847 241.609 87.6181 241.67 87.9447 241.67H88.9247V243H87.6647C86.9461 243 86.3954 242.832 86.0127 242.496C85.6301 242.16 85.4387 241.614 85.4387 240.858V236.588H84.5287V235.286H85.4387V233.368H87.0487V235.286H88.9247V236.588H87.0487ZM94.3857 235.16C94.9737 235.16 95.4964 235.286 95.9537 235.538C96.4204 235.79 96.7844 236.163 97.0457 236.658C97.3164 237.153 97.4517 237.75 97.4517 238.45V243H95.8697V238.688C95.8697 237.997 95.697 237.47 95.3517 237.106C95.0064 236.733 94.535 236.546 93.9377 236.546C93.3404 236.546 92.8644 236.733 92.5097 237.106C92.1644 237.47 91.9917 237.997 91.9917 238.688V243H90.3957V232.64H91.9917V236.182C92.2624 235.855 92.603 235.603 93.0137 235.426C93.4337 235.249 93.891 235.16 94.3857 235.16ZM110.11 235.286V243H108.514V242.09C108.262 242.407 107.931 242.659 107.52 242.846C107.119 243.023 106.69 243.112 106.232 243.112C105.626 243.112 105.08 242.986 104.594 242.734C104.118 242.482 103.74 242.109 103.46 241.614C103.19 241.119 103.054 240.522 103.054 239.822V235.286H104.636V239.584C104.636 240.275 104.809 240.807 105.154 241.18C105.5 241.544 105.971 241.726 106.568 241.726C107.166 241.726 107.637 241.544 107.982 241.18C108.337 240.807 108.514 240.275 108.514 239.584V235.286H110.11ZM115.016 243.126C114.409 243.126 113.863 243.019 113.378 242.804C112.902 242.58 112.524 242.281 112.244 241.908C111.964 241.525 111.815 241.101 111.796 240.634H113.448C113.476 240.961 113.63 241.236 113.91 241.46C114.199 241.675 114.559 241.782 114.988 241.782C115.436 241.782 115.781 241.698 116.024 241.53C116.276 241.353 116.402 241.129 116.402 240.858C116.402 240.569 116.262 240.354 115.982 240.214C115.711 240.074 115.277 239.92 114.68 239.752C114.101 239.593 113.63 239.439 113.266 239.29C112.902 239.141 112.585 238.912 112.314 238.604C112.053 238.296 111.922 237.89 111.922 237.386C111.922 236.975 112.043 236.602 112.286 236.266C112.529 235.921 112.874 235.65 113.322 235.454C113.779 235.258 114.302 235.16 114.89 235.16C115.767 235.16 116.472 235.384 117.004 235.832C117.545 236.271 117.835 236.873 117.872 237.638H116.276C116.248 237.293 116.108 237.017 115.856 236.812C115.604 236.607 115.263 236.504 114.834 236.504C114.414 236.504 114.092 236.583 113.868 236.742C113.644 236.901 113.532 237.111 113.532 237.372C113.532 237.577 113.607 237.75 113.756 237.89C113.905 238.03 114.087 238.142 114.302 238.226C114.517 238.301 114.834 238.399 115.254 238.52C115.814 238.669 116.271 238.823 116.626 238.982C116.99 239.131 117.303 239.355 117.564 239.654C117.825 239.953 117.961 240.349 117.97 240.844C117.97 241.283 117.849 241.675 117.606 242.02C117.363 242.365 117.018 242.636 116.57 242.832C116.131 243.028 115.613 243.126 115.016 243.126ZM121.697 233.27L121.515 240.06H120.185L120.003 233.27H121.697ZM120.899 243.098C120.609 243.098 120.367 243 120.171 242.804C119.975 242.608 119.877 242.365 119.877 242.076C119.877 241.787 119.975 241.544 120.171 241.348C120.367 241.152 120.609 241.054 120.899 241.054C121.179 241.054 121.417 241.152 121.613 241.348C121.809 241.544 121.907 241.787 121.907 242.076C121.907 242.365 121.809 242.608 121.613 242.804C121.417 243 121.179 243.098 120.899 243.098Z" fill="black"/>
</svg>
